<mxfile host="app.diagrams.net" modified="2024-01-13T15:24:11.370Z" agent="Mozilla/5.0 (Windows NT 10.0; Win64; x64; rv:121.0) Gecko/20100101 Firefox/121.0" etag="eL1BBP0dkwn9nc6QnbRh" version="22.1.18" type="device">
  <diagram id="huBmrxI3t5yxGwELQgPa" name="PÃ¡gina-1">
    <mxGraphModel dx="3383" dy="1194" grid="1" gridSize="10" guides="1" tooltips="1" connect="1" arrows="1" fold="1" page="1" pageScale="1" pageWidth="1200" pageHeight="1600" math="0" shadow="0">
      <root>
        <mxCell id="0" />
        <mxCell id="1" parent="0" />
        <mxCell id="relau2AKkcOZ9EzJfMCs-269" style="edgeStyle=orthogonalEdgeStyle;rounded=0;orthogonalLoop=1;jettySize=auto;html=1;exitX=1;exitY=0.75;exitDx=0;exitDy=0;entryX=0.5;entryY=1;entryDx=0;entryDy=0;startArrow=none;startFill=0;endArrow=none;endFill=0;" parent="1" source="relau2AKkcOZ9EzJfMCs-1" target="relau2AKkcOZ9EzJfMCs-268" edge="1">
          <mxGeometry relative="1" as="geometry" />
        </mxCell>
        <mxCell id="relau2AKkcOZ9EzJfMCs-273" value="(1,1)" style="edgeLabel;html=1;align=center;verticalAlign=middle;resizable=0;points=[];" parent="relau2AKkcOZ9EzJfMCs-269" vertex="1" connectable="0">
          <mxGeometry x="-0.5036" y="2" relative="1" as="geometry">
            <mxPoint as="offset" />
          </mxGeometry>
        </mxCell>
        <mxCell id="R-L79iOkoHwaGtRIeRki-2" style="edgeStyle=orthogonalEdgeStyle;rounded=0;orthogonalLoop=1;jettySize=auto;html=1;exitX=0;exitY=0.75;exitDx=0;exitDy=0;entryX=0.5;entryY=1;entryDx=0;entryDy=0;endArrow=none;endFill=0;" parent="1" source="relau2AKkcOZ9EzJfMCs-1" target="R-L79iOkoHwaGtRIeRki-1" edge="1">
          <mxGeometry relative="1" as="geometry" />
        </mxCell>
        <mxCell id="relau2AKkcOZ9EzJfMCs-1" value="USUARIO" style="rounded=0;whiteSpace=wrap;html=1;" parent="1" vertex="1">
          <mxGeometry x="480" y="190" width="120" height="60" as="geometry" />
        </mxCell>
        <mxCell id="relau2AKkcOZ9EzJfMCs-24" style="edgeStyle=orthogonalEdgeStyle;rounded=0;orthogonalLoop=1;jettySize=auto;html=1;exitX=1;exitY=0.5;exitDx=0;exitDy=0;endArrow=none;endFill=0;" parent="1" source="relau2AKkcOZ9EzJfMCs-2" target="relau2AKkcOZ9EzJfMCs-18" edge="1">
          <mxGeometry relative="1" as="geometry" />
        </mxCell>
        <mxCell id="relau2AKkcOZ9EzJfMCs-25" style="edgeStyle=orthogonalEdgeStyle;rounded=0;orthogonalLoop=1;jettySize=auto;html=1;exitX=1;exitY=0.5;exitDx=0;exitDy=0;endArrow=none;endFill=0;" parent="1" source="relau2AKkcOZ9EzJfMCs-2" target="relau2AKkcOZ9EzJfMCs-17" edge="1">
          <mxGeometry relative="1" as="geometry" />
        </mxCell>
        <mxCell id="relau2AKkcOZ9EzJfMCs-26" style="edgeStyle=orthogonalEdgeStyle;rounded=0;orthogonalLoop=1;jettySize=auto;html=1;exitX=1;exitY=0.5;exitDx=0;exitDy=0;endArrow=none;endFill=0;" parent="1" source="relau2AKkcOZ9EzJfMCs-2" target="relau2AKkcOZ9EzJfMCs-19" edge="1">
          <mxGeometry relative="1" as="geometry" />
        </mxCell>
        <mxCell id="relau2AKkcOZ9EzJfMCs-27" style="edgeStyle=orthogonalEdgeStyle;rounded=0;orthogonalLoop=1;jettySize=auto;html=1;exitX=1;exitY=0.5;exitDx=0;exitDy=0;entryX=0.5;entryY=0;entryDx=0;entryDy=0;endArrow=none;endFill=0;" parent="1" source="relau2AKkcOZ9EzJfMCs-2" target="relau2AKkcOZ9EzJfMCs-20" edge="1">
          <mxGeometry relative="1" as="geometry" />
        </mxCell>
        <mxCell id="relau2AKkcOZ9EzJfMCs-2" value="IS A" style="triangle;whiteSpace=wrap;html=1;rotation=90;" parent="1" vertex="1">
          <mxGeometry x="510" y="310" width="60" height="80" as="geometry" />
        </mxCell>
        <mxCell id="relau2AKkcOZ9EzJfMCs-8" value="" style="endArrow=none;html=1;rounded=0;entryX=0;entryY=0.5;entryDx=0;entryDy=0;exitX=0.5;exitY=1;exitDx=0;exitDy=0;" parent="1" source="relau2AKkcOZ9EzJfMCs-1" target="relau2AKkcOZ9EzJfMCs-2" edge="1">
          <mxGeometry width="50" height="50" relative="1" as="geometry">
            <mxPoint x="510" y="300" as="sourcePoint" />
            <mxPoint x="560" y="250" as="targetPoint" />
          </mxGeometry>
        </mxCell>
        <mxCell id="relau2AKkcOZ9EzJfMCs-15" style="edgeStyle=orthogonalEdgeStyle;rounded=0;orthogonalLoop=1;jettySize=auto;html=1;exitX=0.5;exitY=1;exitDx=0;exitDy=0;entryX=1;entryY=0.5;entryDx=0;entryDy=0;endArrow=none;endFill=0;" parent="1" source="relau2AKkcOZ9EzJfMCs-10" target="relau2AKkcOZ9EzJfMCs-1" edge="1">
          <mxGeometry relative="1" as="geometry">
            <Array as="points">
              <mxPoint x="670" y="210" />
              <mxPoint x="600" y="210" />
            </Array>
          </mxGeometry>
        </mxCell>
        <mxCell id="relau2AKkcOZ9EzJfMCs-10" value="nombre_usuario" style="ellipse;whiteSpace=wrap;html=1;" parent="1" vertex="1">
          <mxGeometry x="610" y="80" width="120" height="80" as="geometry" />
        </mxCell>
        <mxCell id="relau2AKkcOZ9EzJfMCs-14" style="edgeStyle=orthogonalEdgeStyle;rounded=0;orthogonalLoop=1;jettySize=auto;html=1;exitX=0.5;exitY=1;exitDx=0;exitDy=0;entryX=0.25;entryY=0;entryDx=0;entryDy=0;endArrow=none;endFill=0;" parent="1" source="relau2AKkcOZ9EzJfMCs-11" target="relau2AKkcOZ9EzJfMCs-1" edge="1">
          <mxGeometry relative="1" as="geometry" />
        </mxCell>
        <mxCell id="relau2AKkcOZ9EzJfMCs-11" value="email" style="ellipse;whiteSpace=wrap;html=1;" parent="1" vertex="1">
          <mxGeometry x="450" y="80" width="120" height="80" as="geometry" />
        </mxCell>
        <mxCell id="relau2AKkcOZ9EzJfMCs-13" style="edgeStyle=orthogonalEdgeStyle;rounded=0;orthogonalLoop=1;jettySize=auto;html=1;exitX=0.5;exitY=1;exitDx=0;exitDy=0;entryX=0;entryY=0.5;entryDx=0;entryDy=0;endArrow=none;endFill=0;" parent="1" source="relau2AKkcOZ9EzJfMCs-12" target="relau2AKkcOZ9EzJfMCs-1" edge="1">
          <mxGeometry relative="1" as="geometry" />
        </mxCell>
        <mxCell id="relau2AKkcOZ9EzJfMCs-12" value="password" style="ellipse;whiteSpace=wrap;html=1;" parent="1" vertex="1">
          <mxGeometry x="290" y="80" width="120" height="80" as="geometry" />
        </mxCell>
        <mxCell id="relau2AKkcOZ9EzJfMCs-38" style="edgeStyle=orthogonalEdgeStyle;rounded=0;orthogonalLoop=1;jettySize=auto;html=1;exitX=1;exitY=0.5;exitDx=0;exitDy=0;entryX=0;entryY=0.5;entryDx=0;entryDy=0;endArrow=none;endFill=0;" parent="1" source="relau2AKkcOZ9EzJfMCs-17" target="relau2AKkcOZ9EzJfMCs-34" edge="1">
          <mxGeometry relative="1" as="geometry" />
        </mxCell>
        <mxCell id="-vnu5VXbckZ52TAGntJZ-1" value="" style="edgeStyle=orthogonalEdgeStyle;rounded=0;orthogonalLoop=1;jettySize=auto;html=1;endArrow=none;endFill=0;" parent="1" source="relau2AKkcOZ9EzJfMCs-17" target="relau2AKkcOZ9EzJfMCs-35" edge="1">
          <mxGeometry relative="1" as="geometry" />
        </mxCell>
        <mxCell id="-vnu5VXbckZ52TAGntJZ-3" style="edgeStyle=orthogonalEdgeStyle;rounded=0;orthogonalLoop=1;jettySize=auto;html=1;exitX=0.5;exitY=1;exitDx=0;exitDy=0;entryX=0.5;entryY=0;entryDx=0;entryDy=0;endArrow=none;endFill=0;startArrow=block;startFill=1;" parent="1" source="relau2AKkcOZ9EzJfMCs-17" target="relau2AKkcOZ9EzJfMCs-246" edge="1">
          <mxGeometry relative="1" as="geometry" />
        </mxCell>
        <mxCell id="-vnu5VXbckZ52TAGntJZ-5" value="(1,n)" style="edgeLabel;html=1;align=center;verticalAlign=middle;resizable=0;points=[];" parent="-vnu5VXbckZ52TAGntJZ-3" vertex="1" connectable="0">
          <mxGeometry x="-0.9136" y="-2" relative="1" as="geometry">
            <mxPoint as="offset" />
          </mxGeometry>
        </mxCell>
        <mxCell id="relau2AKkcOZ9EzJfMCs-17" value="GESTOR&lt;span style=&quot;color: rgba(0 , 0 , 0 , 0) ; font-family: monospace ; font-size: 0px&quot;&gt;%3CmxGraphModel%3E%3Croot%3E%3CmxCell%20id%3D%220%22%2F%3E%3CmxCell%20id%3D%221%22%20parent%3D%220%22%2F%3E%3CmxCell%20id%3D%222%22%20value%3D%22CLIENTE%22%20style%3D%22rounded%3D0%3BwhiteSpace%3Dwrap%3Bhtml%3D1%3B%22%20vertex%3D%221%22%20parent%3D%221%22%3E%3CmxGeometry%20x%3D%22320%22%20y%3D%22480%22%20width%3D%22120%22%20height%3D%2260%22%20as%3D%22geometry%22%2F%3E%3C%2FmxCell%3E%3C%2Froot%3E%3C%2FmxGraphModel%3E&lt;/span&gt;" style="rounded=0;whiteSpace=wrap;html=1;" parent="1" vertex="1">
          <mxGeometry x="-70" y="440" width="120" height="60" as="geometry" />
        </mxCell>
        <mxCell id="relau2AKkcOZ9EzJfMCs-36" style="edgeStyle=orthogonalEdgeStyle;rounded=0;orthogonalLoop=1;jettySize=auto;html=1;exitX=1;exitY=0.5;exitDx=0;exitDy=0;entryX=0;entryY=0.5;entryDx=0;entryDy=0;endArrow=none;endFill=0;" parent="1" source="relau2AKkcOZ9EzJfMCs-18" target="relau2AKkcOZ9EzJfMCs-32" edge="1">
          <mxGeometry relative="1" as="geometry" />
        </mxCell>
        <mxCell id="relau2AKkcOZ9EzJfMCs-115" style="edgeStyle=orthogonalEdgeStyle;rounded=0;orthogonalLoop=1;jettySize=auto;html=1;exitX=0.5;exitY=1;exitDx=0;exitDy=0;startArrow=block;startFill=1;endArrow=none;endFill=0;" parent="1" source="relau2AKkcOZ9EzJfMCs-18" target="relau2AKkcOZ9EzJfMCs-101" edge="1">
          <mxGeometry relative="1" as="geometry" />
        </mxCell>
        <mxCell id="relau2AKkcOZ9EzJfMCs-165" value="(0,n)" style="edgeLabel;html=1;align=center;verticalAlign=middle;resizable=0;points=[];" parent="relau2AKkcOZ9EzJfMCs-115" vertex="1" connectable="0">
          <mxGeometry x="-0.4781" relative="1" as="geometry">
            <mxPoint as="offset" />
          </mxGeometry>
        </mxCell>
        <mxCell id="relau2AKkcOZ9EzJfMCs-18" value="MODERADO&lt;span style=&quot;color: rgba(0 , 0 , 0 , 0) ; font-family: monospace ; font-size: 0px&quot;&gt;%3CmxGraphModel%3E%3Croot%3E%3CmxCell%20id%3D%220%22%2F%3E%3CmxCell%20id%3D%221%22%20parent%3D%220%22%2F%3E%3CmxCell%20id%3D%222%22%20value%3D%22GESTOR%26lt%3Bspan%20style%3D%26quot%3Bcolor%3A%20rgba(0%20%2C%200%20%2C%200%20%2C%200)%20%3B%20font-family%3A%20monospace%20%3B%20font-size%3A%200px%26quot%3B%26gt%3B%253CmxGraphModel%253E%253Croot%253E%253CmxCell%2520id%253D%25220%2522%252F%253E%253CmxCell%2520id%253D%25221%2522%2520parent%253D%25220%2522%252F%253E%253CmxCell%2520id%253D%25222%2522%2520value%253D%2522CLIENTE%2522%2520style%253D%2522rounded%253D0%253BwhiteSpace%253Dwrap%253Bhtml%253D1%253B%2522%2520vertex%253D%25221%2522%2520parent%253D%25221%2522%253E%253CmxGeometry%2520x%253D%2522320%2522%2520y%253D%2522480%2522%2520width%253D%2522120%2522%2520height%253D%252260%2522%2520as%253D%2522geometry%2522%252F%253E%253C%252FmxCell%253E%253C%252Froot%253E%253C%252FmxGraphModel%253E%26lt%3B%2Fspan%26gt%3B%22%20style%3D%22rounded%3D0%3BwhiteSpace%3Dwrap%3Bhtml%3D1%3B%22%20vertex%3D%221%22%20parent%3D%221%22%3E%3CmxGeometry%20x%3D%22450%22%20y%3D%22480%22%20width%3D%22120%22%20height%3D%2260%22%20as%3D%22geometry%22%2F%3E%3C%2FmxCell%3E%3C%2Froot%3E%3C%2FmxGraphModel%3E&lt;/span&gt;R" style="rounded=0;whiteSpace=wrap;html=1;" parent="1" vertex="1">
          <mxGeometry x="1160" y="440" width="130" height="60" as="geometry" />
        </mxCell>
        <mxCell id="relau2AKkcOZ9EzJfMCs-37" style="edgeStyle=orthogonalEdgeStyle;rounded=0;orthogonalLoop=1;jettySize=auto;html=1;exitX=1;exitY=0.5;exitDx=0;exitDy=0;entryX=0;entryY=0.5;entryDx=0;entryDy=0;endArrow=none;endFill=0;" parent="1" source="relau2AKkcOZ9EzJfMCs-19" target="relau2AKkcOZ9EzJfMCs-33" edge="1">
          <mxGeometry relative="1" as="geometry" />
        </mxCell>
        <mxCell id="relau2AKkcOZ9EzJfMCs-113" style="edgeStyle=orthogonalEdgeStyle;rounded=0;orthogonalLoop=1;jettySize=auto;html=1;exitX=0.5;exitY=1;exitDx=0;exitDy=0;startArrow=none;startFill=0;endArrow=none;endFill=0;" parent="1" source="relau2AKkcOZ9EzJfMCs-19" target="relau2AKkcOZ9EzJfMCs-102" edge="1">
          <mxGeometry relative="1" as="geometry" />
        </mxCell>
        <mxCell id="relau2AKkcOZ9EzJfMCs-168" value="(1,1)" style="edgeLabel;html=1;align=center;verticalAlign=middle;resizable=0;points=[];" parent="relau2AKkcOZ9EzJfMCs-113" vertex="1" connectable="0">
          <mxGeometry x="-0.1529" y="1" relative="1" as="geometry">
            <mxPoint as="offset" />
          </mxGeometry>
        </mxCell>
        <mxCell id="relau2AKkcOZ9EzJfMCs-204" style="edgeStyle=orthogonalEdgeStyle;rounded=0;orthogonalLoop=1;jettySize=auto;html=1;exitX=0.25;exitY=1;exitDx=0;exitDy=0;entryX=0.5;entryY=0;entryDx=0;entryDy=0;startArrow=none;startFill=0;endArrow=none;endFill=0;" parent="1" source="relau2AKkcOZ9EzJfMCs-19" target="relau2AKkcOZ9EzJfMCs-203" edge="1">
          <mxGeometry relative="1" as="geometry">
            <Array as="points">
              <mxPoint x="330" y="500" />
              <mxPoint x="330" y="705" />
              <mxPoint x="150" y="705" />
            </Array>
          </mxGeometry>
        </mxCell>
        <mxCell id="relau2AKkcOZ9EzJfMCs-207" value="(1,1)" style="edgeLabel;html=1;align=center;verticalAlign=middle;resizable=0;points=[];" parent="relau2AKkcOZ9EzJfMCs-204" vertex="1" connectable="0">
          <mxGeometry x="-0.6513" y="-2" relative="1" as="geometry">
            <mxPoint as="offset" />
          </mxGeometry>
        </mxCell>
        <mxCell id="relau2AKkcOZ9EzJfMCs-235" style="edgeStyle=orthogonalEdgeStyle;rounded=0;orthogonalLoop=1;jettySize=auto;html=1;exitX=0.25;exitY=1;exitDx=0;exitDy=0;entryX=0.5;entryY=0;entryDx=0;entryDy=0;startArrow=block;startFill=1;endArrow=none;endFill=0;" parent="1" source="relau2AKkcOZ9EzJfMCs-19" target="relau2AKkcOZ9EzJfMCs-234" edge="1">
          <mxGeometry relative="1" as="geometry" />
        </mxCell>
        <mxCell id="relau2AKkcOZ9EzJfMCs-238" value="(0,n)" style="edgeLabel;html=1;align=center;verticalAlign=middle;resizable=0;points=[];" parent="relau2AKkcOZ9EzJfMCs-235" vertex="1" connectable="0">
          <mxGeometry x="-0.8601" y="-1" relative="1" as="geometry">
            <mxPoint as="offset" />
          </mxGeometry>
        </mxCell>
        <mxCell id="relau2AKkcOZ9EzJfMCs-19" value="CLIENTE" style="rounded=0;whiteSpace=wrap;html=1;" parent="1" vertex="1">
          <mxGeometry x="480" y="440" width="120" height="60" as="geometry" />
        </mxCell>
        <mxCell id="relau2AKkcOZ9EzJfMCs-31" style="edgeStyle=orthogonalEdgeStyle;rounded=0;orthogonalLoop=1;jettySize=auto;html=1;exitX=1;exitY=0.5;exitDx=0;exitDy=0;entryX=0;entryY=0.5;entryDx=0;entryDy=0;endArrow=none;endFill=0;" parent="1" source="relau2AKkcOZ9EzJfMCs-20" target="relau2AKkcOZ9EzJfMCs-30" edge="1">
          <mxGeometry relative="1" as="geometry" />
        </mxCell>
        <mxCell id="relau2AKkcOZ9EzJfMCs-20" value="ADMINISTRADOR" style="rounded=0;whiteSpace=wrap;html=1;" parent="1" vertex="1">
          <mxGeometry x="1760" y="440" width="120" height="60" as="geometry" />
        </mxCell>
        <mxCell id="relau2AKkcOZ9EzJfMCs-29" style="edgeStyle=orthogonalEdgeStyle;rounded=0;orthogonalLoop=1;jettySize=auto;html=1;exitX=0.5;exitY=1;exitDx=0;exitDy=0;entryX=1;entryY=0.5;entryDx=0;entryDy=0;endArrow=none;endFill=0;" parent="1" source="relau2AKkcOZ9EzJfMCs-28" target="relau2AKkcOZ9EzJfMCs-1" edge="1">
          <mxGeometry relative="1" as="geometry">
            <Array as="points">
              <mxPoint x="820" y="220" />
            </Array>
          </mxGeometry>
        </mxCell>
        <mxCell id="relau2AKkcOZ9EzJfMCs-28" value="foto_perfil_usuario" style="ellipse;whiteSpace=wrap;html=1;" parent="1" vertex="1">
          <mxGeometry x="760" y="40" width="120" height="80" as="geometry" />
        </mxCell>
        <mxCell id="relau2AKkcOZ9EzJfMCs-30" value="&lt;u&gt;ref_administrador&lt;/u&gt;" style="ellipse;whiteSpace=wrap;html=1;" parent="1" vertex="1">
          <mxGeometry x="1920" y="430" width="120" height="80" as="geometry" />
        </mxCell>
        <mxCell id="relau2AKkcOZ9EzJfMCs-32" value="&lt;u&gt;ref_moderador&lt;/u&gt;" style="ellipse;whiteSpace=wrap;html=1;" parent="1" vertex="1">
          <mxGeometry x="1340" y="430" width="120" height="80" as="geometry" />
        </mxCell>
        <mxCell id="relau2AKkcOZ9EzJfMCs-33" value="&lt;u&gt;ref_cliente&lt;/u&gt;" style="ellipse;whiteSpace=wrap;html=1;" parent="1" vertex="1">
          <mxGeometry x="650" y="430" width="120" height="80" as="geometry" />
        </mxCell>
        <mxCell id="relau2AKkcOZ9EzJfMCs-34" value="&lt;u&gt;ref_gestor&lt;/u&gt;" style="ellipse;whiteSpace=wrap;html=1;" parent="1" vertex="1">
          <mxGeometry x="100" y="430" width="120" height="80" as="geometry" />
        </mxCell>
        <mxCell id="relau2AKkcOZ9EzJfMCs-35" value="es_propietario" style="ellipse;whiteSpace=wrap;html=1;" parent="1" vertex="1">
          <mxGeometry x="-250" y="430" width="120" height="80" as="geometry" />
        </mxCell>
        <mxCell id="relau2AKkcOZ9EzJfMCs-43" style="edgeStyle=orthogonalEdgeStyle;rounded=0;orthogonalLoop=1;jettySize=auto;html=1;exitX=0;exitY=0;exitDx=0;exitDy=0;entryX=1;entryY=0.75;entryDx=0;entryDy=0;endArrow=none;endFill=0;" parent="1" source="relau2AKkcOZ9EzJfMCs-40" target="relau2AKkcOZ9EzJfMCs-18" edge="1">
          <mxGeometry relative="1" as="geometry" />
        </mxCell>
        <mxCell id="relau2AKkcOZ9EzJfMCs-40" value="comunidad_autonoma_moderador" style="ellipse;whiteSpace=wrap;html=1;" parent="1" vertex="1">
          <mxGeometry x="1330" y="520" width="210" height="70" as="geometry" />
        </mxCell>
        <mxCell id="relau2AKkcOZ9EzJfMCs-42" style="edgeStyle=orthogonalEdgeStyle;rounded=0;orthogonalLoop=1;jettySize=auto;html=1;exitX=1;exitY=0.5;exitDx=0;exitDy=0;entryX=0;entryY=0.5;entryDx=0;entryDy=0;endArrow=none;endFill=0;" parent="1" source="relau2AKkcOZ9EzJfMCs-41" target="relau2AKkcOZ9EzJfMCs-18" edge="1">
          <mxGeometry relative="1" as="geometry" />
        </mxCell>
        <mxCell id="relau2AKkcOZ9EzJfMCs-41" value="ciudad_moderador" style="ellipse;whiteSpace=wrap;html=1;" parent="1" vertex="1">
          <mxGeometry x="1010" y="440" width="120" height="80" as="geometry" />
        </mxCell>
        <mxCell id="relau2AKkcOZ9EzJfMCs-55" value="(1,1)" style="edgeStyle=orthogonalEdgeStyle;rounded=0;orthogonalLoop=1;jettySize=auto;html=1;endArrow=none;endFill=0;entryX=0.5;entryY=0;entryDx=0;entryDy=0;" parent="1" source="relau2AKkcOZ9EzJfMCs-46" target="relau2AKkcOZ9EzJfMCs-50" edge="1">
          <mxGeometry relative="1" as="geometry">
            <mxPoint x="981" y="1567" as="sourcePoint" />
            <mxPoint x="981" y="1667" as="targetPoint" />
            <Array as="points">
              <mxPoint x="940" y="1580" />
              <mxPoint x="820" y="1580" />
            </Array>
          </mxGeometry>
        </mxCell>
        <mxCell id="relau2AKkcOZ9EzJfMCs-58" style="edgeStyle=orthogonalEdgeStyle;rounded=0;orthogonalLoop=1;jettySize=auto;html=1;exitX=1;exitY=0.5;exitDx=0;exitDy=0;entryX=0;entryY=0.5;entryDx=0;entryDy=0;startArrow=none;startFill=0;endArrow=none;endFill=0;" parent="1" source="relau2AKkcOZ9EzJfMCs-46" target="relau2AKkcOZ9EzJfMCs-47" edge="1">
          <mxGeometry relative="1" as="geometry">
            <Array as="points">
              <mxPoint x="1160" y="1536" />
              <mxPoint x="1160" y="1976" />
              <mxPoint x="1375" y="1976" />
            </Array>
          </mxGeometry>
        </mxCell>
        <mxCell id="relau2AKkcOZ9EzJfMCs-63" style="edgeStyle=orthogonalEdgeStyle;rounded=0;orthogonalLoop=1;jettySize=auto;html=1;exitX=0.75;exitY=0;exitDx=0;exitDy=0;entryX=0;entryY=0.5;entryDx=0;entryDy=0;startArrow=none;startFill=0;endArrow=none;endFill=0;" parent="1" source="relau2AKkcOZ9EzJfMCs-46" target="relau2AKkcOZ9EzJfMCs-62" edge="1">
          <mxGeometry relative="1" as="geometry">
            <Array as="points">
              <mxPoint x="1010" y="1536" />
              <mxPoint x="1160" y="1536" />
              <mxPoint x="1160" y="1896" />
            </Array>
          </mxGeometry>
        </mxCell>
        <mxCell id="relau2AKkcOZ9EzJfMCs-68" style="edgeStyle=orthogonalEdgeStyle;rounded=0;orthogonalLoop=1;jettySize=auto;html=1;exitX=1;exitY=0.5;exitDx=0;exitDy=0;entryX=0;entryY=0.5;entryDx=0;entryDy=0;startArrow=none;startFill=0;endArrow=none;endFill=0;" parent="1" source="relau2AKkcOZ9EzJfMCs-46" target="relau2AKkcOZ9EzJfMCs-67" edge="1">
          <mxGeometry relative="1" as="geometry">
            <Array as="points">
              <mxPoint x="1160" y="1536" />
              <mxPoint x="1160" y="1806" />
            </Array>
          </mxGeometry>
        </mxCell>
        <mxCell id="relau2AKkcOZ9EzJfMCs-69" style="edgeStyle=orthogonalEdgeStyle;rounded=0;orthogonalLoop=1;jettySize=auto;html=1;exitX=1;exitY=0.5;exitDx=0;exitDy=0;entryX=0;entryY=0.5;entryDx=0;entryDy=0;startArrow=none;startFill=0;endArrow=none;endFill=0;" parent="1" source="relau2AKkcOZ9EzJfMCs-46" target="relau2AKkcOZ9EzJfMCs-66" edge="1">
          <mxGeometry relative="1" as="geometry">
            <Array as="points">
              <mxPoint x="1160" y="1536" />
              <mxPoint x="1160" y="1716" />
            </Array>
          </mxGeometry>
        </mxCell>
        <mxCell id="relau2AKkcOZ9EzJfMCs-70" style="edgeStyle=orthogonalEdgeStyle;rounded=0;orthogonalLoop=1;jettySize=auto;html=1;exitX=1;exitY=0.5;exitDx=0;exitDy=0;entryX=0;entryY=0.5;entryDx=0;entryDy=0;startArrow=none;startFill=0;endArrow=none;endFill=0;" parent="1" source="relau2AKkcOZ9EzJfMCs-46" target="relau2AKkcOZ9EzJfMCs-60" edge="1">
          <mxGeometry relative="1" as="geometry">
            <Array as="points">
              <mxPoint x="1160" y="1536" />
              <mxPoint x="1160" y="2176" />
            </Array>
          </mxGeometry>
        </mxCell>
        <mxCell id="relau2AKkcOZ9EzJfMCs-71" style="edgeStyle=orthogonalEdgeStyle;rounded=0;orthogonalLoop=1;jettySize=auto;html=1;exitX=1;exitY=0.5;exitDx=0;exitDy=0;entryX=0;entryY=0.5;entryDx=0;entryDy=0;startArrow=none;startFill=0;endArrow=none;endFill=0;" parent="1" source="relau2AKkcOZ9EzJfMCs-46" target="relau2AKkcOZ9EzJfMCs-65" edge="1">
          <mxGeometry relative="1" as="geometry">
            <Array as="points">
              <mxPoint x="1160" y="1536" />
              <mxPoint x="1160" y="1626" />
            </Array>
          </mxGeometry>
        </mxCell>
        <mxCell id="relau2AKkcOZ9EzJfMCs-72" style="edgeStyle=orthogonalEdgeStyle;rounded=0;orthogonalLoop=1;jettySize=auto;html=1;exitX=1;exitY=0.5;exitDx=0;exitDy=0;entryX=0;entryY=0.5;entryDx=0;entryDy=0;startArrow=none;startFill=0;endArrow=none;endFill=0;" parent="1" source="relau2AKkcOZ9EzJfMCs-46" target="relau2AKkcOZ9EzJfMCs-64" edge="1">
          <mxGeometry relative="1" as="geometry">
            <Array as="points">
              <mxPoint x="1260" y="1536" />
              <mxPoint x="1260" y="1536" />
            </Array>
          </mxGeometry>
        </mxCell>
        <mxCell id="relau2AKkcOZ9EzJfMCs-118" style="edgeStyle=orthogonalEdgeStyle;rounded=0;orthogonalLoop=1;jettySize=auto;html=1;exitX=0.5;exitY=0;exitDx=0;exitDy=0;entryX=0.5;entryY=1;entryDx=0;entryDy=0;startArrow=none;startFill=0;endArrow=none;endFill=0;" parent="1" source="relau2AKkcOZ9EzJfMCs-46" target="relau2AKkcOZ9EzJfMCs-92" edge="1">
          <mxGeometry relative="1" as="geometry" />
        </mxCell>
        <mxCell id="relau2AKkcOZ9EzJfMCs-171" value="(1,1)" style="edgeLabel;html=1;align=center;verticalAlign=middle;resizable=0;points=[];" parent="relau2AKkcOZ9EzJfMCs-118" vertex="1" connectable="0">
          <mxGeometry x="-0.1" y="-2" relative="1" as="geometry">
            <mxPoint as="offset" />
          </mxGeometry>
        </mxCell>
        <mxCell id="relau2AKkcOZ9EzJfMCs-192" style="edgeStyle=orthogonalEdgeStyle;rounded=0;orthogonalLoop=1;jettySize=auto;html=1;exitX=0;exitY=0.5;exitDx=0;exitDy=0;entryX=1;entryY=0.5;entryDx=0;entryDy=0;startArrow=none;startFill=0;endArrow=none;endFill=0;" parent="1" source="relau2AKkcOZ9EzJfMCs-46" target="relau2AKkcOZ9EzJfMCs-191" edge="1">
          <mxGeometry relative="1" as="geometry" />
        </mxCell>
        <mxCell id="relau2AKkcOZ9EzJfMCs-196" value="(1,1)" style="edgeLabel;html=1;align=center;verticalAlign=middle;resizable=0;points=[];" parent="relau2AKkcOZ9EzJfMCs-192" vertex="1" connectable="0">
          <mxGeometry x="0.1321" y="3" relative="1" as="geometry">
            <mxPoint as="offset" />
          </mxGeometry>
        </mxCell>
        <mxCell id="relau2AKkcOZ9EzJfMCs-212" style="edgeStyle=orthogonalEdgeStyle;rounded=0;orthogonalLoop=1;jettySize=auto;html=1;exitX=1;exitY=0;exitDx=0;exitDy=0;startArrow=none;startFill=0;endArrow=none;endFill=0;" parent="1" source="relau2AKkcOZ9EzJfMCs-46" target="relau2AKkcOZ9EzJfMCs-211" edge="1">
          <mxGeometry relative="1" as="geometry" />
        </mxCell>
        <mxCell id="relau2AKkcOZ9EzJfMCs-227" value="(1,1)" style="edgeLabel;html=1;align=center;verticalAlign=middle;resizable=0;points=[];" parent="relau2AKkcOZ9EzJfMCs-212" vertex="1" connectable="0">
          <mxGeometry x="-0.0662" y="-1" relative="1" as="geometry">
            <mxPoint as="offset" />
          </mxGeometry>
        </mxCell>
        <mxCell id="relau2AKkcOZ9EzJfMCs-236" style="edgeStyle=orthogonalEdgeStyle;rounded=0;orthogonalLoop=1;jettySize=auto;html=1;exitX=0;exitY=0.25;exitDx=0;exitDy=0;entryX=0.5;entryY=1;entryDx=0;entryDy=0;startArrow=block;startFill=1;endArrow=none;endFill=0;" parent="1" source="relau2AKkcOZ9EzJfMCs-46" target="relau2AKkcOZ9EzJfMCs-234" edge="1">
          <mxGeometry relative="1" as="geometry">
            <Array as="points">
              <mxPoint x="320" y="1521" />
            </Array>
          </mxGeometry>
        </mxCell>
        <mxCell id="relau2AKkcOZ9EzJfMCs-239" value="(0,n)" style="edgeLabel;html=1;align=center;verticalAlign=middle;resizable=0;points=[];" parent="relau2AKkcOZ9EzJfMCs-236" vertex="1" connectable="0">
          <mxGeometry x="-0.8654" y="-2" relative="1" as="geometry">
            <mxPoint as="offset" />
          </mxGeometry>
        </mxCell>
        <mxCell id="relau2AKkcOZ9EzJfMCs-285" style="edgeStyle=orthogonalEdgeStyle;rounded=0;orthogonalLoop=1;jettySize=auto;html=1;exitX=0;exitY=0.75;exitDx=0;exitDy=0;startArrow=block;startFill=1;endArrow=none;endFill=0;" parent="1" source="relau2AKkcOZ9EzJfMCs-46" edge="1">
          <mxGeometry relative="1" as="geometry">
            <mxPoint x="-240" y="1000" as="targetPoint" />
            <Array as="points">
              <mxPoint x="720" y="1551" />
              <mxPoint x="720" y="1680" />
              <mxPoint x="520" y="1680" />
              <mxPoint x="520" y="1740" />
              <mxPoint x="-460" y="1740" />
              <mxPoint x="-460" y="1000" />
            </Array>
          </mxGeometry>
        </mxCell>
        <mxCell id="-vnu5VXbckZ52TAGntJZ-6" value="(0,n)" style="edgeLabel;html=1;align=center;verticalAlign=middle;resizable=0;points=[];" parent="relau2AKkcOZ9EzJfMCs-285" vertex="1" connectable="0">
          <mxGeometry x="-0.9515" relative="1" as="geometry">
            <mxPoint as="offset" />
          </mxGeometry>
        </mxCell>
        <mxCell id="R-L79iOkoHwaGtRIeRki-4" style="edgeStyle=orthogonalEdgeStyle;rounded=0;orthogonalLoop=1;jettySize=auto;html=1;exitX=1;exitY=0.5;exitDx=0;exitDy=0;entryX=0;entryY=0.5;entryDx=0;entryDy=0;endArrow=none;endFill=0;" parent="1" source="relau2AKkcOZ9EzJfMCs-46" target="R-L79iOkoHwaGtRIeRki-3" edge="1">
          <mxGeometry relative="1" as="geometry">
            <Array as="points">
              <mxPoint x="1160" y="1536" />
              <mxPoint x="1160" y="2290" />
            </Array>
          </mxGeometry>
        </mxCell>
        <mxCell id="relau2AKkcOZ9EzJfMCs-46" value="RESTAURANTE" style="rounded=0;whiteSpace=wrap;html=1;" parent="1" vertex="1">
          <mxGeometry x="920" y="1506" width="120" height="60" as="geometry" />
        </mxCell>
        <mxCell id="relau2AKkcOZ9EzJfMCs-47" value="nombre_restaurante" style="ellipse;whiteSpace=wrap;html=1;" parent="1" vertex="1">
          <mxGeometry x="1375" y="1946" width="120" height="80" as="geometry" />
        </mxCell>
        <mxCell id="relau2AKkcOZ9EzJfMCs-59" style="edgeStyle=orthogonalEdgeStyle;rounded=0;orthogonalLoop=1;jettySize=auto;html=1;exitX=0;exitY=0.5;exitDx=0;exitDy=0;entryX=1;entryY=0.75;entryDx=0;entryDy=0;startArrow=none;startFill=0;endArrow=none;endFill=0;" parent="1" source="relau2AKkcOZ9EzJfMCs-48" target="relau2AKkcOZ9EzJfMCs-46" edge="1">
          <mxGeometry relative="1" as="geometry">
            <Array as="points">
              <mxPoint x="1160" y="2076" />
              <mxPoint x="1160" y="1536" />
              <mxPoint x="1040" y="1536" />
            </Array>
          </mxGeometry>
        </mxCell>
        <mxCell id="relau2AKkcOZ9EzJfMCs-48" value="foto_perfil_restaurante" style="ellipse;whiteSpace=wrap;html=1;" parent="1" vertex="1">
          <mxGeometry x="1365" y="2036" width="130" height="80" as="geometry" />
        </mxCell>
        <mxCell id="relau2AKkcOZ9EzJfMCs-49" value="&lt;u&gt;id_imagen_restaurante&lt;/u&gt;" style="ellipse;whiteSpace=wrap;html=1;" parent="1" vertex="1">
          <mxGeometry x="712.5" y="1996" width="130" height="80" as="geometry" />
        </mxCell>
        <mxCell id="relau2AKkcOZ9EzJfMCs-50" value="MUESTRA" style="rhombus;whiteSpace=wrap;html=1;" parent="1" vertex="1">
          <mxGeometry x="780" y="1710" width="80" height="80" as="geometry" />
        </mxCell>
        <mxCell id="relau2AKkcOZ9EzJfMCs-54" style="edgeStyle=orthogonalEdgeStyle;rounded=0;orthogonalLoop=1;jettySize=auto;html=1;exitX=0;exitY=0.5;exitDx=0;exitDy=0;entryX=1;entryY=0.5;entryDx=0;entryDy=0;endArrow=none;endFill=0;" parent="1" source="relau2AKkcOZ9EzJfMCs-51" target="relau2AKkcOZ9EzJfMCs-52" edge="1">
          <mxGeometry relative="1" as="geometry">
            <Array as="points">
              <mxPoint x="697.5" y="1886" />
              <mxPoint x="697.5" y="1986" />
            </Array>
          </mxGeometry>
        </mxCell>
        <mxCell id="relau2AKkcOZ9EzJfMCs-56" value="(0,n)" style="edgeStyle=orthogonalEdgeStyle;rounded=0;orthogonalLoop=1;jettySize=auto;html=1;exitX=0.5;exitY=0;exitDx=0;exitDy=0;entryX=0.5;entryY=1;entryDx=0;entryDy=0;endArrow=none;endFill=0;startArrow=block;startFill=1;" parent="1" source="relau2AKkcOZ9EzJfMCs-51" target="relau2AKkcOZ9EzJfMCs-50" edge="1">
          <mxGeometry relative="1" as="geometry" />
        </mxCell>
        <mxCell id="relau2AKkcOZ9EzJfMCs-162" style="edgeStyle=orthogonalEdgeStyle;rounded=0;orthogonalLoop=1;jettySize=auto;html=1;exitX=0.75;exitY=1;exitDx=0;exitDy=0;entryX=0.5;entryY=0;entryDx=0;entryDy=0;startArrow=none;startFill=0;endArrow=none;endFill=0;" parent="1" source="relau2AKkcOZ9EzJfMCs-51" target="relau2AKkcOZ9EzJfMCs-49" edge="1">
          <mxGeometry relative="1" as="geometry" />
        </mxCell>
        <mxCell id="relau2AKkcOZ9EzJfMCs-51" value="IMAGENES_RESTAURANTE" style="rounded=0;whiteSpace=wrap;html=1;" parent="1" vertex="1">
          <mxGeometry x="647.5" y="1856" width="170" height="60" as="geometry" />
        </mxCell>
        <mxCell id="relau2AKkcOZ9EzJfMCs-52" value="ruta_imagen_restaurante" style="ellipse;whiteSpace=wrap;html=1;" parent="1" vertex="1">
          <mxGeometry x="497.5" y="1946" width="150" height="80" as="geometry" />
        </mxCell>
        <mxCell id="relau2AKkcOZ9EzJfMCs-57" value="&lt;b&gt;1 : N&lt;/b&gt;" style="text;html=1;strokeColor=none;fillColor=none;align=center;verticalAlign=middle;whiteSpace=wrap;rounded=0;" parent="1" vertex="1">
          <mxGeometry x="730" y="1736" width="60" height="30" as="geometry" />
        </mxCell>
        <mxCell id="relau2AKkcOZ9EzJfMCs-60" value="carta" style="ellipse;whiteSpace=wrap;html=1;" parent="1" vertex="1">
          <mxGeometry x="1365" y="2136" width="120" height="80" as="geometry" />
        </mxCell>
        <mxCell id="relau2AKkcOZ9EzJfMCs-62" value="precio_medio_comensal" style="ellipse;whiteSpace=wrap;html=1;" parent="1" vertex="1">
          <mxGeometry x="1375" y="1856" width="150" height="80" as="geometry" />
        </mxCell>
        <mxCell id="relau2AKkcOZ9EzJfMCs-64" value="calle_resaturante" style="ellipse;whiteSpace=wrap;html=1;" parent="1" vertex="1">
          <mxGeometry x="1390" y="1496" width="120" height="80" as="geometry" />
        </mxCell>
        <mxCell id="relau2AKkcOZ9EzJfMCs-65" value="ciudad_restaurante" style="ellipse;whiteSpace=wrap;html=1;" parent="1" vertex="1">
          <mxGeometry x="1395" y="1586" width="120" height="80" as="geometry" />
        </mxCell>
        <mxCell id="relau2AKkcOZ9EzJfMCs-66" value="barrio_restaurante" style="ellipse;whiteSpace=wrap;html=1;" parent="1" vertex="1">
          <mxGeometry x="1390" y="1676" width="120" height="80" as="geometry" />
        </mxCell>
        <mxCell id="relau2AKkcOZ9EzJfMCs-67" value="comunidad_autonoma_restaurante" style="ellipse;whiteSpace=wrap;html=1;" parent="1" vertex="1">
          <mxGeometry x="1355" y="1766" width="190" height="80" as="geometry" />
        </mxCell>
        <mxCell id="relau2AKkcOZ9EzJfMCs-73" value="(1,N)" style="edgeStyle=orthogonalEdgeStyle;rounded=0;orthogonalLoop=1;jettySize=auto;html=1;exitX=0.5;exitY=1;exitDx=0;exitDy=0;endArrow=block;endFill=1;startArrow=none;startFill=0;" parent="1" source="relau2AKkcOZ9EzJfMCs-74" target="relau2AKkcOZ9EzJfMCs-77" edge="1">
          <mxGeometry relative="1" as="geometry">
            <Array as="points">
              <mxPoint x="970" y="2146" />
              <mxPoint x="970" y="2146" />
            </Array>
          </mxGeometry>
        </mxCell>
        <mxCell id="relau2AKkcOZ9EzJfMCs-124" style="edgeStyle=orthogonalEdgeStyle;rounded=0;orthogonalLoop=1;jettySize=auto;html=1;exitX=0.5;exitY=0;exitDx=0;exitDy=0;entryX=0.418;entryY=1.048;entryDx=0;entryDy=0;entryPerimeter=0;startArrow=none;startFill=0;endArrow=block;endFill=1;" parent="1" source="relau2AKkcOZ9EzJfMCs-74" target="relau2AKkcOZ9EzJfMCs-46" edge="1">
          <mxGeometry relative="1" as="geometry">
            <Array as="points">
              <mxPoint x="970" y="1576" />
              <mxPoint x="970" y="1576" />
            </Array>
          </mxGeometry>
        </mxCell>
        <mxCell id="relau2AKkcOZ9EzJfMCs-125" value="(0,n)" style="edgeLabel;html=1;align=center;verticalAlign=middle;resizable=0;points=[];" parent="relau2AKkcOZ9EzJfMCs-124" vertex="1" connectable="0">
          <mxGeometry x="0.3397" relative="1" as="geometry">
            <mxPoint as="offset" />
          </mxGeometry>
        </mxCell>
        <mxCell id="relau2AKkcOZ9EzJfMCs-74" value="PERTENECE" style="rhombus;whiteSpace=wrap;html=1;" parent="1" vertex="1">
          <mxGeometry x="930" y="1986" width="80" height="80" as="geometry" />
        </mxCell>
        <mxCell id="relau2AKkcOZ9EzJfMCs-75" style="edgeStyle=orthogonalEdgeStyle;rounded=0;orthogonalLoop=1;jettySize=auto;html=1;exitX=0;exitY=0.25;exitDx=0;exitDy=0;endArrow=none;endFill=0;" parent="1" source="relau2AKkcOZ9EzJfMCs-77" target="relau2AKkcOZ9EzJfMCs-81" edge="1">
          <mxGeometry relative="1" as="geometry" />
        </mxCell>
        <mxCell id="relau2AKkcOZ9EzJfMCs-76" style="edgeStyle=orthogonalEdgeStyle;rounded=0;orthogonalLoop=1;jettySize=auto;html=1;exitX=0;exitY=0.75;exitDx=0;exitDy=0;endArrow=none;endFill=0;" parent="1" source="relau2AKkcOZ9EzJfMCs-77" target="relau2AKkcOZ9EzJfMCs-82" edge="1">
          <mxGeometry relative="1" as="geometry" />
        </mxCell>
        <mxCell id="relau2AKkcOZ9EzJfMCs-77" value="Categoria" style="rounded=0;whiteSpace=wrap;html=1;" parent="1" vertex="1">
          <mxGeometry x="915" y="2166" width="120" height="60" as="geometry" />
        </mxCell>
        <mxCell id="relau2AKkcOZ9EzJfMCs-78" style="edgeStyle=orthogonalEdgeStyle;rounded=0;orthogonalLoop=1;jettySize=auto;html=1;exitX=0;exitY=0.5;exitDx=0;exitDy=0;entryX=0.5;entryY=1;entryDx=0;entryDy=0;endArrow=none;endFill=0;" parent="1" source="relau2AKkcOZ9EzJfMCs-80" target="relau2AKkcOZ9EzJfMCs-77" edge="1">
          <mxGeometry relative="1" as="geometry" />
        </mxCell>
        <mxCell id="relau2AKkcOZ9EzJfMCs-79" style="edgeStyle=orthogonalEdgeStyle;rounded=0;orthogonalLoop=1;jettySize=auto;html=1;exitX=0.5;exitY=0;exitDx=0;exitDy=0;entryX=1;entryY=0.5;entryDx=0;entryDy=0;endArrow=none;endFill=0;" parent="1" source="relau2AKkcOZ9EzJfMCs-80" target="relau2AKkcOZ9EzJfMCs-77" edge="1">
          <mxGeometry relative="1" as="geometry" />
        </mxCell>
        <mxCell id="relau2AKkcOZ9EzJfMCs-80" value="SUBDIVIDE" style="rhombus;whiteSpace=wrap;html=1;" parent="1" vertex="1">
          <mxGeometry x="1025" y="2246" width="80" height="80" as="geometry" />
        </mxCell>
        <mxCell id="relau2AKkcOZ9EzJfMCs-81" value="&lt;u&gt;id_categoria&lt;/u&gt;" style="ellipse;whiteSpace=wrap;html=1;" parent="1" vertex="1">
          <mxGeometry x="760" y="2156" width="100" height="50" as="geometry" />
        </mxCell>
        <mxCell id="relau2AKkcOZ9EzJfMCs-82" value="nombre_categoria" style="ellipse;whiteSpace=wrap;html=1;" parent="1" vertex="1">
          <mxGeometry x="765" y="2216" width="100" height="50" as="geometry" />
        </mxCell>
        <mxCell id="relau2AKkcOZ9EzJfMCs-83" value="&lt;b&gt;N : M&lt;br&gt;&lt;/b&gt;" style="text;html=1;strokeColor=none;fillColor=none;align=center;verticalAlign=middle;whiteSpace=wrap;rounded=0;" parent="1" vertex="1">
          <mxGeometry x="1015" y="2011" width="60" height="30" as="geometry" />
        </mxCell>
        <mxCell id="relau2AKkcOZ9EzJfMCs-85" value="&lt;b&gt;N:M&lt;/b&gt;" style="text;html=1;strokeColor=none;fillColor=none;align=center;verticalAlign=middle;whiteSpace=wrap;rounded=0;" parent="1" vertex="1">
          <mxGeometry x="1100" y="2271" width="60" height="30" as="geometry" />
        </mxCell>
        <mxCell id="relau2AKkcOZ9EzJfMCs-92" value="POSEE" style="rhombus;whiteSpace=wrap;html=1;" parent="1" vertex="1">
          <mxGeometry x="850" y="1276" width="80" height="80" as="geometry" />
        </mxCell>
        <mxCell id="relau2AKkcOZ9EzJfMCs-97" style="edgeStyle=orthogonalEdgeStyle;rounded=0;orthogonalLoop=1;jettySize=auto;html=1;exitX=0.75;exitY=0;exitDx=0;exitDy=0;endArrow=none;endFill=0;startArrow=block;startFill=1;" parent="1" source="relau2AKkcOZ9EzJfMCs-98" target="relau2AKkcOZ9EzJfMCs-102" edge="1">
          <mxGeometry relative="1" as="geometry">
            <mxPoint x="950" y="956" as="targetPoint" />
            <Array as="points" />
          </mxGeometry>
        </mxCell>
        <mxCell id="relau2AKkcOZ9EzJfMCs-167" value="(0,n)" style="edgeLabel;html=1;align=center;verticalAlign=middle;resizable=0;points=[];" parent="relau2AKkcOZ9EzJfMCs-97" vertex="1" connectable="0">
          <mxGeometry x="-0.0587" y="1" relative="1" as="geometry">
            <mxPoint as="offset" />
          </mxGeometry>
        </mxCell>
        <mxCell id="relau2AKkcOZ9EzJfMCs-117" style="edgeStyle=orthogonalEdgeStyle;rounded=0;orthogonalLoop=1;jettySize=auto;html=1;exitX=0.5;exitY=1;exitDx=0;exitDy=0;entryX=0.5;entryY=0;entryDx=0;entryDy=0;startArrow=block;startFill=1;endArrow=none;endFill=0;" parent="1" source="relau2AKkcOZ9EzJfMCs-98" target="relau2AKkcOZ9EzJfMCs-92" edge="1">
          <mxGeometry relative="1" as="geometry" />
        </mxCell>
        <mxCell id="relau2AKkcOZ9EzJfMCs-169" value="(0,n)" style="edgeLabel;html=1;align=center;verticalAlign=middle;resizable=0;points=[];" parent="relau2AKkcOZ9EzJfMCs-117" vertex="1" connectable="0">
          <mxGeometry x="-0.3579" y="-1" relative="1" as="geometry">
            <mxPoint as="offset" />
          </mxGeometry>
        </mxCell>
        <mxCell id="relau2AKkcOZ9EzJfMCs-151" style="edgeStyle=orthogonalEdgeStyle;rounded=0;orthogonalLoop=1;jettySize=auto;html=1;exitX=0;exitY=0.5;exitDx=0;exitDy=0;entryX=0.5;entryY=0;entryDx=0;entryDy=0;startArrow=none;startFill=0;endArrow=none;endFill=0;" parent="1" source="relau2AKkcOZ9EzJfMCs-98" target="relau2AKkcOZ9EzJfMCs-144" edge="1">
          <mxGeometry relative="1" as="geometry" />
        </mxCell>
        <mxCell id="relau2AKkcOZ9EzJfMCs-152" value="(1,1)" style="edgeLabel;html=1;align=center;verticalAlign=middle;resizable=0;points=[];" parent="relau2AKkcOZ9EzJfMCs-151" vertex="1" connectable="0">
          <mxGeometry x="-0.4139" y="-2" relative="1" as="geometry">
            <mxPoint as="offset" />
          </mxGeometry>
        </mxCell>
        <mxCell id="relau2AKkcOZ9EzJfMCs-154" style="edgeStyle=orthogonalEdgeStyle;rounded=0;orthogonalLoop=1;jettySize=auto;html=1;exitX=0.25;exitY=0;exitDx=0;exitDy=0;startArrow=none;startFill=0;endArrow=none;endFill=0;" parent="1" source="relau2AKkcOZ9EzJfMCs-98" target="relau2AKkcOZ9EzJfMCs-123" edge="1">
          <mxGeometry relative="1" as="geometry" />
        </mxCell>
        <mxCell id="relau2AKkcOZ9EzJfMCs-156" style="edgeStyle=orthogonalEdgeStyle;rounded=0;orthogonalLoop=1;jettySize=auto;html=1;exitX=0.25;exitY=0;exitDx=0;exitDy=0;entryX=0.996;entryY=0.39;entryDx=0;entryDy=0;entryPerimeter=0;startArrow=none;startFill=0;endArrow=none;endFill=0;" parent="1" source="relau2AKkcOZ9EzJfMCs-98" target="relau2AKkcOZ9EzJfMCs-99" edge="1">
          <mxGeometry relative="1" as="geometry">
            <Array as="points">
              <mxPoint x="860" y="1006" />
              <mxPoint x="560" y="1006" />
              <mxPoint x="560" y="856" />
            </Array>
          </mxGeometry>
        </mxCell>
        <mxCell id="relau2AKkcOZ9EzJfMCs-157" style="edgeStyle=orthogonalEdgeStyle;rounded=0;orthogonalLoop=1;jettySize=auto;html=1;exitX=0.25;exitY=0;exitDx=0;exitDy=0;entryX=1;entryY=0.5;entryDx=0;entryDy=0;startArrow=none;startFill=0;endArrow=none;endFill=0;" parent="1" source="relau2AKkcOZ9EzJfMCs-98" target="relau2AKkcOZ9EzJfMCs-121" edge="1">
          <mxGeometry relative="1" as="geometry">
            <Array as="points">
              <mxPoint x="860" y="1006" />
              <mxPoint x="560" y="1006" />
              <mxPoint x="560" y="926" />
            </Array>
          </mxGeometry>
        </mxCell>
        <mxCell id="relau2AKkcOZ9EzJfMCs-186" style="edgeStyle=orthogonalEdgeStyle;rounded=0;orthogonalLoop=1;jettySize=auto;html=1;exitX=0.75;exitY=1;exitDx=0;exitDy=0;entryX=0;entryY=0.5;entryDx=0;entryDy=0;startArrow=block;startFill=1;endArrow=none;endFill=0;" parent="1" source="relau2AKkcOZ9EzJfMCs-98" target="relau2AKkcOZ9EzJfMCs-175" edge="1">
          <mxGeometry relative="1" as="geometry" />
        </mxCell>
        <mxCell id="relau2AKkcOZ9EzJfMCs-187" value="(1,1)" style="edgeLabel;html=1;align=center;verticalAlign=middle;resizable=0;points=[];" parent="relau2AKkcOZ9EzJfMCs-186" vertex="1" connectable="0">
          <mxGeometry x="0.4786" y="-3" relative="1" as="geometry">
            <mxPoint as="offset" />
          </mxGeometry>
        </mxCell>
        <mxCell id="relau2AKkcOZ9EzJfMCs-229" style="edgeStyle=orthogonalEdgeStyle;rounded=0;orthogonalLoop=1;jettySize=auto;html=1;exitX=0.25;exitY=0;exitDx=0;exitDy=0;entryX=1;entryY=0.5;entryDx=0;entryDy=0;startArrow=none;startFill=0;endArrow=none;endFill=0;" parent="1" source="relau2AKkcOZ9EzJfMCs-98" target="relau2AKkcOZ9EzJfMCs-228" edge="1">
          <mxGeometry relative="1" as="geometry">
            <Array as="points">
              <mxPoint x="860" y="1006" />
              <mxPoint x="560" y="1006" />
              <mxPoint x="560" y="1219" />
            </Array>
          </mxGeometry>
        </mxCell>
        <mxCell id="relau2AKkcOZ9EzJfMCs-98" value="RESEÃA" style="rounded=0;whiteSpace=wrap;html=1;" parent="1" vertex="1">
          <mxGeometry x="830" y="1026" width="120" height="60" as="geometry" />
        </mxCell>
        <mxCell id="relau2AKkcOZ9EzJfMCs-99" value="&lt;u&gt;id_reseÃ±a&lt;/u&gt;&lt;span style=&quot;color: rgba(0 , 0 , 0 , 0) ; font-family: monospace ; font-size: 0px&quot;&gt;%3CmxGraphModel%3E%3Croot%3E%3CmxCell%20id%3D%220%22%2F%3E%3CmxCell%20id%3D%221%22%20parent%3D%220%22%2F%3E%3CmxCell%20id%3D%222%22%20value%3D%22%26lt%3Bu%26gt%3Bid_cliente%26lt%3B%2Fu%26gt%3B%22%20style%3D%22ellipse%3BwhiteSpace%3Dwrap%3Bhtml%3D1%3B%22%20vertex%3D%221%22%20parent%3D%221%22%3E%3CmxGeometry%20x%3D%22580%22%20y%3D%22370%22%20width%3D%22100%22%20height%3D%2250%22%20as%3D%22geometry%22%2F%3E%3C%2FmxCell%3E%3C%2Froot%3E%3C%2FmxGraphModel%3E&lt;/span&gt;&lt;span style=&quot;color: rgba(0 , 0 , 0 , 0) ; font-family: monospace ; font-size: 0px&quot;&gt;%3CmxGraphModel%3E%3Croot%3E%3CmxCell%20id%3D%220%22%2F%3E%3CmxCell%20id%3D%221%22%20parent%3D%220%22%2F%3E%3CmxCell%20id%3D%222%22%20value%3D%22%26lt%3Bu%26gt%3Bid_cliente%26lt%3B%2Fu%26gt%3B%22%20style%3D%22ellipse%3BwhiteSpace%3Dwrap%3Bhtml%3D1%3B%22%20vertex%3D%221%22%20parent%3D%221%22%3E%3CmxGeometry%20x%3D%22580%22%20y%3D%22370%22%20width%3D%22100%22%20height%3D%2250%22%20as%3D%22geometry%22%2F%3E%3C%2FmxCell%3E%3C%2Froot%3E%3C%2FmxGraphMode&lt;/span&gt;" style="ellipse;whiteSpace=wrap;html=1;" parent="1" vertex="1">
          <mxGeometry x="430" y="836" width="90" height="50" as="geometry" />
        </mxCell>
        <mxCell id="relau2AKkcOZ9EzJfMCs-160" style="edgeStyle=orthogonalEdgeStyle;rounded=0;orthogonalLoop=1;jettySize=auto;html=1;exitX=1;exitY=0.5;exitDx=0;exitDy=0;entryX=0.25;entryY=0;entryDx=0;entryDy=0;startArrow=none;startFill=0;endArrow=none;endFill=0;" parent="1" source="relau2AKkcOZ9EzJfMCs-100" target="relau2AKkcOZ9EzJfMCs-98" edge="1">
          <mxGeometry relative="1" as="geometry">
            <Array as="points">
              <mxPoint x="560" y="1151" />
              <mxPoint x="560" y="1006" />
              <mxPoint x="860" y="1006" />
            </Array>
          </mxGeometry>
        </mxCell>
        <mxCell id="relau2AKkcOZ9EzJfMCs-100" value="cuerpo_reseÃ±a" style="ellipse;whiteSpace=wrap;html=1;" parent="1" vertex="1">
          <mxGeometry x="430" y="1126" width="90" height="50" as="geometry" />
        </mxCell>
        <mxCell id="relau2AKkcOZ9EzJfMCs-172" style="edgeStyle=orthogonalEdgeStyle;rounded=0;orthogonalLoop=1;jettySize=auto;html=1;exitX=0.5;exitY=1;exitDx=0;exitDy=0;entryX=1;entryY=0.5;entryDx=0;entryDy=0;startArrow=none;startFill=0;endArrow=block;endFill=1;" parent="1" source="relau2AKkcOZ9EzJfMCs-101" target="relau2AKkcOZ9EzJfMCs-98" edge="1">
          <mxGeometry relative="1" as="geometry" />
        </mxCell>
        <mxCell id="relau2AKkcOZ9EzJfMCs-173" value="(0,n)" style="edgeLabel;html=1;align=center;verticalAlign=middle;resizable=0;points=[];" parent="relau2AKkcOZ9EzJfMCs-172" vertex="1" connectable="0">
          <mxGeometry x="0.2094" y="-1" relative="1" as="geometry">
            <mxPoint as="offset" />
          </mxGeometry>
        </mxCell>
        <mxCell id="relau2AKkcOZ9EzJfMCs-101" value="MODERA" style="rhombus;whiteSpace=wrap;html=1;" parent="1" vertex="1">
          <mxGeometry x="1185" y="630" width="80" height="80" as="geometry" />
        </mxCell>
        <mxCell id="relau2AKkcOZ9EzJfMCs-102" value="ESCRIBE" style="rhombus;whiteSpace=wrap;html=1;" parent="1" vertex="1">
          <mxGeometry x="880" y="796" width="80" height="80" as="geometry" />
        </mxCell>
        <mxCell id="relau2AKkcOZ9EzJfMCs-161" style="edgeStyle=orthogonalEdgeStyle;rounded=0;orthogonalLoop=1;jettySize=auto;html=1;exitX=1;exitY=0.5;exitDx=0;exitDy=0;entryX=0.25;entryY=0;entryDx=0;entryDy=0;startArrow=none;startFill=0;endArrow=none;endFill=0;" parent="1" source="relau2AKkcOZ9EzJfMCs-119" target="relau2AKkcOZ9EzJfMCs-98" edge="1">
          <mxGeometry relative="1" as="geometry">
            <Array as="points">
              <mxPoint x="560" y="1086" />
              <mxPoint x="560" y="1006" />
              <mxPoint x="860" y="1006" />
            </Array>
          </mxGeometry>
        </mxCell>
        <mxCell id="relau2AKkcOZ9EzJfMCs-119" value="titulo_reseÃ±a" style="ellipse;whiteSpace=wrap;html=1;" parent="1" vertex="1">
          <mxGeometry x="430" y="1056" width="90" height="60" as="geometry" />
        </mxCell>
        <mxCell id="relau2AKkcOZ9EzJfMCs-121" value="puntuacion" style="ellipse;whiteSpace=wrap;html=1;" parent="1" vertex="1">
          <mxGeometry x="430" y="896" width="90" height="60" as="geometry" />
        </mxCell>
        <mxCell id="relau2AKkcOZ9EzJfMCs-123" value="precio_x_persona" style="ellipse;whiteSpace=wrap;html=1;" parent="1" vertex="1">
          <mxGeometry x="415" y="966" width="120" height="80" as="geometry" />
        </mxCell>
        <mxCell id="relau2AKkcOZ9EzJfMCs-143" value="&lt;u&gt;id_imagen_reseÃ±a&lt;/u&gt;" style="ellipse;whiteSpace=wrap;html=1;" parent="1" vertex="1">
          <mxGeometry x="620" y="1406" width="130" height="80" as="geometry" />
        </mxCell>
        <mxCell id="relau2AKkcOZ9EzJfMCs-144" value="MUESTRA" style="rhombus;whiteSpace=wrap;html=1;" parent="1" vertex="1">
          <mxGeometry x="580" y="1086" width="80" height="80" as="geometry" />
        </mxCell>
        <mxCell id="relau2AKkcOZ9EzJfMCs-146" style="edgeStyle=orthogonalEdgeStyle;rounded=0;orthogonalLoop=1;jettySize=auto;html=1;exitX=0;exitY=0.5;exitDx=0;exitDy=0;entryX=1;entryY=0.5;entryDx=0;entryDy=0;endArrow=none;endFill=0;" parent="1" source="relau2AKkcOZ9EzJfMCs-148" target="relau2AKkcOZ9EzJfMCs-149" edge="1">
          <mxGeometry relative="1" as="geometry">
            <Array as="points">
              <mxPoint x="600" y="1306" />
              <mxPoint x="600" y="1406" />
            </Array>
          </mxGeometry>
        </mxCell>
        <mxCell id="relau2AKkcOZ9EzJfMCs-147" value="(0,n)" style="edgeStyle=orthogonalEdgeStyle;rounded=0;orthogonalLoop=1;jettySize=auto;html=1;exitX=0.5;exitY=0;exitDx=0;exitDy=0;entryX=0.5;entryY=1;entryDx=0;entryDy=0;endArrow=none;endFill=0;startArrow=block;startFill=1;" parent="1" source="relau2AKkcOZ9EzJfMCs-148" target="relau2AKkcOZ9EzJfMCs-144" edge="1">
          <mxGeometry relative="1" as="geometry" />
        </mxCell>
        <mxCell id="relau2AKkcOZ9EzJfMCs-153" style="edgeStyle=orthogonalEdgeStyle;rounded=0;orthogonalLoop=1;jettySize=auto;html=1;exitX=0.75;exitY=1;exitDx=0;exitDy=0;startArrow=none;startFill=0;endArrow=none;endFill=0;" parent="1" source="relau2AKkcOZ9EzJfMCs-148" target="relau2AKkcOZ9EzJfMCs-143" edge="1">
          <mxGeometry relative="1" as="geometry" />
        </mxCell>
        <mxCell id="relau2AKkcOZ9EzJfMCs-148" value="IMAGENES_RESEÃA" style="rounded=0;whiteSpace=wrap;html=1;" parent="1" vertex="1">
          <mxGeometry x="550" y="1276" width="140" height="60" as="geometry" />
        </mxCell>
        <mxCell id="relau2AKkcOZ9EzJfMCs-149" value="ruta_imagen_reseÃ±a" style="ellipse;whiteSpace=wrap;html=1;" parent="1" vertex="1">
          <mxGeometry x="400" y="1366" width="150" height="80" as="geometry" />
        </mxCell>
        <mxCell id="relau2AKkcOZ9EzJfMCs-150" value="&lt;b&gt;1 : N&lt;/b&gt;" style="text;html=1;strokeColor=none;fillColor=none;align=center;verticalAlign=middle;whiteSpace=wrap;rounded=0;" parent="1" vertex="1">
          <mxGeometry x="660" y="1111" width="60" height="30" as="geometry" />
        </mxCell>
        <mxCell id="relau2AKkcOZ9EzJfMCs-163" value="&lt;b&gt;1 : N&lt;/b&gt;" style="text;html=1;strokeColor=none;fillColor=none;align=center;verticalAlign=middle;whiteSpace=wrap;rounded=0;" parent="1" vertex="1">
          <mxGeometry x="820" y="821" width="60" height="30" as="geometry" />
        </mxCell>
        <mxCell id="relau2AKkcOZ9EzJfMCs-164" value="&lt;b&gt;N : M&lt;/b&gt;" style="text;html=1;strokeColor=none;fillColor=none;align=center;verticalAlign=middle;whiteSpace=wrap;rounded=0;" parent="1" vertex="1">
          <mxGeometry x="1270" y="655" width="60" height="30" as="geometry" />
        </mxCell>
        <mxCell id="relau2AKkcOZ9EzJfMCs-170" value="&lt;b&gt;1 : N&lt;/b&gt;" style="text;html=1;strokeColor=none;fillColor=none;align=center;verticalAlign=middle;whiteSpace=wrap;rounded=0;" parent="1" vertex="1">
          <mxGeometry x="920" y="1301" width="60" height="30" as="geometry" />
        </mxCell>
        <mxCell id="relau2AKkcOZ9EzJfMCs-174" value="(0,n)" style="edgeStyle=orthogonalEdgeStyle;rounded=0;orthogonalLoop=1;jettySize=auto;html=1;exitX=0.5;exitY=1;exitDx=0;exitDy=0;endArrow=block;endFill=1;startArrow=none;startFill=0;" parent="1" source="relau2AKkcOZ9EzJfMCs-175" target="relau2AKkcOZ9EzJfMCs-178" edge="1">
          <mxGeometry relative="1" as="geometry">
            <Array as="points">
              <mxPoint x="1185" y="1236" />
              <mxPoint x="1185" y="1236" />
            </Array>
          </mxGeometry>
        </mxCell>
        <mxCell id="relau2AKkcOZ9EzJfMCs-175" value="TIENE" style="rhombus;whiteSpace=wrap;html=1;" parent="1" vertex="1">
          <mxGeometry x="1050" y="1111" width="80" height="80" as="geometry" />
        </mxCell>
        <mxCell id="relau2AKkcOZ9EzJfMCs-176" style="edgeStyle=orthogonalEdgeStyle;rounded=0;orthogonalLoop=1;jettySize=auto;html=1;exitX=0;exitY=0.25;exitDx=0;exitDy=0;endArrow=none;endFill=0;" parent="1" source="relau2AKkcOZ9EzJfMCs-178" target="relau2AKkcOZ9EzJfMCs-182" edge="1">
          <mxGeometry relative="1" as="geometry" />
        </mxCell>
        <mxCell id="relau2AKkcOZ9EzJfMCs-177" style="edgeStyle=orthogonalEdgeStyle;rounded=0;orthogonalLoop=1;jettySize=auto;html=1;exitX=0;exitY=0.75;exitDx=0;exitDy=0;endArrow=none;endFill=0;" parent="1" source="relau2AKkcOZ9EzJfMCs-178" target="relau2AKkcOZ9EzJfMCs-183" edge="1">
          <mxGeometry relative="1" as="geometry" />
        </mxCell>
        <mxCell id="relau2AKkcOZ9EzJfMCs-178" value="RESPUESTA" style="rounded=0;whiteSpace=wrap;html=1;" parent="1" vertex="1">
          <mxGeometry x="1140" y="1256" width="120" height="60" as="geometry" />
        </mxCell>
        <mxCell id="relau2AKkcOZ9EzJfMCs-179" style="edgeStyle=orthogonalEdgeStyle;rounded=0;orthogonalLoop=1;jettySize=auto;html=1;exitX=0;exitY=0.5;exitDx=0;exitDy=0;entryX=0.5;entryY=1;entryDx=0;entryDy=0;endArrow=none;endFill=0;" parent="1" source="relau2AKkcOZ9EzJfMCs-181" target="relau2AKkcOZ9EzJfMCs-178" edge="1">
          <mxGeometry relative="1" as="geometry" />
        </mxCell>
        <mxCell id="relau2AKkcOZ9EzJfMCs-180" style="edgeStyle=orthogonalEdgeStyle;rounded=0;orthogonalLoop=1;jettySize=auto;html=1;exitX=0.5;exitY=0;exitDx=0;exitDy=0;entryX=1;entryY=0.5;entryDx=0;entryDy=0;endArrow=none;endFill=0;" parent="1" source="relau2AKkcOZ9EzJfMCs-181" target="relau2AKkcOZ9EzJfMCs-178" edge="1">
          <mxGeometry relative="1" as="geometry" />
        </mxCell>
        <mxCell id="relau2AKkcOZ9EzJfMCs-181" value="CONTIENE" style="rhombus;whiteSpace=wrap;html=1;" parent="1" vertex="1">
          <mxGeometry x="1260" y="1336" width="80" height="80" as="geometry" />
        </mxCell>
        <mxCell id="relau2AKkcOZ9EzJfMCs-182" value="&lt;u&gt;id_respuesta&lt;/u&gt;" style="ellipse;whiteSpace=wrap;html=1;" parent="1" vertex="1">
          <mxGeometry x="1000" y="1246" width="100" height="50" as="geometry" />
        </mxCell>
        <mxCell id="relau2AKkcOZ9EzJfMCs-183" value="texto_respuesta" style="ellipse;whiteSpace=wrap;html=1;" parent="1" vertex="1">
          <mxGeometry x="1010" y="1311" width="100" height="50" as="geometry" />
        </mxCell>
        <mxCell id="relau2AKkcOZ9EzJfMCs-184" value="&lt;b&gt;N : 1&lt;/b&gt;" style="text;html=1;strokeColor=none;fillColor=none;align=center;verticalAlign=middle;whiteSpace=wrap;rounded=0;" parent="1" vertex="1">
          <mxGeometry x="1125" y="1136" width="60" height="30" as="geometry" />
        </mxCell>
        <mxCell id="relau2AKkcOZ9EzJfMCs-185" value="&lt;b&gt;1 : N&lt;/b&gt;" style="text;html=1;strokeColor=none;fillColor=none;align=center;verticalAlign=middle;whiteSpace=wrap;rounded=0;" parent="1" vertex="1">
          <mxGeometry x="1340" y="1361" width="60" height="30" as="geometry" />
        </mxCell>
        <mxCell id="relau2AKkcOZ9EzJfMCs-193" style="edgeStyle=orthogonalEdgeStyle;rounded=0;orthogonalLoop=1;jettySize=auto;html=1;exitX=1;exitY=0.5;exitDx=0;exitDy=0;entryX=0;entryY=0.5;entryDx=0;entryDy=0;startArrow=block;startFill=1;endArrow=none;endFill=0;" parent="1" source="relau2AKkcOZ9EzJfMCs-189" target="relau2AKkcOZ9EzJfMCs-191" edge="1">
          <mxGeometry relative="1" as="geometry" />
        </mxCell>
        <mxCell id="relau2AKkcOZ9EzJfMCs-195" value="(0,n)" style="edgeLabel;html=1;align=center;verticalAlign=middle;resizable=0;points=[];" parent="relau2AKkcOZ9EzJfMCs-193" vertex="1" connectable="0">
          <mxGeometry x="-0.4" y="-3" relative="1" as="geometry">
            <mxPoint as="offset" />
          </mxGeometry>
        </mxCell>
        <mxCell id="relau2AKkcOZ9EzJfMCs-200" style="edgeStyle=orthogonalEdgeStyle;rounded=0;orthogonalLoop=1;jettySize=auto;html=1;exitX=0.75;exitY=1;exitDx=0;exitDy=0;startArrow=none;startFill=0;endArrow=none;endFill=0;" parent="1" source="relau2AKkcOZ9EzJfMCs-189" target="relau2AKkcOZ9EzJfMCs-199" edge="1">
          <mxGeometry relative="1" as="geometry" />
        </mxCell>
        <mxCell id="relau2AKkcOZ9EzJfMCs-205" style="edgeStyle=orthogonalEdgeStyle;rounded=0;orthogonalLoop=1;jettySize=auto;html=1;exitX=0.5;exitY=0;exitDx=0;exitDy=0;startArrow=block;startFill=1;endArrow=none;endFill=0;" parent="1" source="relau2AKkcOZ9EzJfMCs-189" target="relau2AKkcOZ9EzJfMCs-203" edge="1">
          <mxGeometry relative="1" as="geometry" />
        </mxCell>
        <mxCell id="relau2AKkcOZ9EzJfMCs-206" value="(0,n)" style="edgeLabel;html=1;align=center;verticalAlign=middle;resizable=0;points=[];" parent="relau2AKkcOZ9EzJfMCs-205" vertex="1" connectable="0">
          <mxGeometry x="-0.8251" y="3" relative="1" as="geometry">
            <mxPoint as="offset" />
          </mxGeometry>
        </mxCell>
        <mxCell id="relau2AKkcOZ9EzJfMCs-189" value="RESERVA" style="rounded=0;whiteSpace=wrap;html=1;" parent="1" vertex="1">
          <mxGeometry x="-80" y="1506" width="120" height="60" as="geometry" />
        </mxCell>
        <mxCell id="relau2AKkcOZ9EzJfMCs-191" value="RECIBE" style="rhombus;whiteSpace=wrap;html=1;" parent="1" vertex="1">
          <mxGeometry x="310" y="1531" width="80" height="80" as="geometry" />
        </mxCell>
        <mxCell id="relau2AKkcOZ9EzJfMCs-194" value="&lt;b&gt;1 : N&lt;/b&gt;" style="text;html=1;strokeColor=none;fillColor=none;align=center;verticalAlign=middle;whiteSpace=wrap;rounded=0;" parent="1" vertex="1">
          <mxGeometry x="320" y="1576" width="60" height="30" as="geometry" />
        </mxCell>
        <mxCell id="relau2AKkcOZ9EzJfMCs-198" style="edgeStyle=orthogonalEdgeStyle;rounded=0;orthogonalLoop=1;jettySize=auto;html=1;exitX=0.5;exitY=0;exitDx=0;exitDy=0;entryX=0.5;entryY=1;entryDx=0;entryDy=0;startArrow=none;startFill=0;endArrow=none;endFill=0;" parent="1" source="relau2AKkcOZ9EzJfMCs-197" target="relau2AKkcOZ9EzJfMCs-189" edge="1">
          <mxGeometry relative="1" as="geometry" />
        </mxCell>
        <mxCell id="relau2AKkcOZ9EzJfMCs-197" value="&lt;u&gt;id_reserva&lt;/u&gt;" style="ellipse;whiteSpace=wrap;html=1;" parent="1" vertex="1">
          <mxGeometry x="-170" y="1611" width="120" height="80" as="geometry" />
        </mxCell>
        <mxCell id="relau2AKkcOZ9EzJfMCs-199" value="num_comensales" style="ellipse;whiteSpace=wrap;html=1;" parent="1" vertex="1">
          <mxGeometry y="1620" width="120" height="80" as="geometry" />
        </mxCell>
        <mxCell id="relau2AKkcOZ9EzJfMCs-202" style="edgeStyle=orthogonalEdgeStyle;rounded=0;orthogonalLoop=1;jettySize=auto;html=1;exitX=1;exitY=0.5;exitDx=0;exitDy=0;entryX=0;entryY=0.5;entryDx=0;entryDy=0;startArrow=none;startFill=0;endArrow=none;endFill=0;" parent="1" source="relau2AKkcOZ9EzJfMCs-201" target="relau2AKkcOZ9EzJfMCs-189" edge="1">
          <mxGeometry relative="1" as="geometry" />
        </mxCell>
        <mxCell id="relau2AKkcOZ9EzJfMCs-201" value="datos_pago" style="ellipse;whiteSpace=wrap;html=1;" parent="1" vertex="1">
          <mxGeometry x="-290" y="1540" width="120" height="80" as="geometry" />
        </mxCell>
        <mxCell id="relau2AKkcOZ9EzJfMCs-203" value="REALIZA" style="rhombus;whiteSpace=wrap;html=1;" parent="1" vertex="1">
          <mxGeometry x="110" y="910" width="80" height="80" as="geometry" />
        </mxCell>
        <mxCell id="relau2AKkcOZ9EzJfMCs-208" value="&lt;b&gt;1 : N&lt;/b&gt;" style="text;html=1;strokeColor=none;fillColor=none;align=center;verticalAlign=middle;whiteSpace=wrap;rounded=0;" parent="1" vertex="1">
          <mxGeometry x="190" y="935" width="60" height="30" as="geometry" />
        </mxCell>
        <mxCell id="relau2AKkcOZ9EzJfMCs-210" style="edgeStyle=orthogonalEdgeStyle;rounded=0;orthogonalLoop=1;jettySize=auto;html=1;exitX=1;exitY=0.5;exitDx=0;exitDy=0;entryX=0;entryY=0.5;entryDx=0;entryDy=0;startArrow=none;startFill=0;endArrow=none;endFill=0;" parent="1" source="relau2AKkcOZ9EzJfMCs-209" target="relau2AKkcOZ9EzJfMCs-203" edge="1">
          <mxGeometry relative="1" as="geometry" />
        </mxCell>
        <mxCell id="relau2AKkcOZ9EzJfMCs-209" value="fecha_reserva" style="ellipse;whiteSpace=wrap;html=1;" parent="1" vertex="1">
          <mxGeometry x="-50" y="920" width="110" height="60" as="geometry" />
        </mxCell>
        <mxCell id="relau2AKkcOZ9EzJfMCs-214" style="edgeStyle=orthogonalEdgeStyle;rounded=0;orthogonalLoop=1;jettySize=auto;html=1;exitX=1;exitY=0.5;exitDx=0;exitDy=0;entryX=0;entryY=0.5;entryDx=0;entryDy=0;startArrow=none;startFill=0;endArrow=block;endFill=1;" parent="1" source="relau2AKkcOZ9EzJfMCs-211" target="relau2AKkcOZ9EzJfMCs-213" edge="1">
          <mxGeometry relative="1" as="geometry" />
        </mxCell>
        <mxCell id="relau2AKkcOZ9EzJfMCs-226" value="(0,n)" style="edgeLabel;html=1;align=center;verticalAlign=middle;resizable=0;points=[];" parent="relau2AKkcOZ9EzJfMCs-214" vertex="1" connectable="0">
          <mxGeometry x="-0.3029" y="-2" relative="1" as="geometry">
            <mxPoint as="offset" />
          </mxGeometry>
        </mxCell>
        <mxCell id="relau2AKkcOZ9EzJfMCs-211" value="ORGANIZA" style="rhombus;whiteSpace=wrap;html=1;" parent="1" vertex="1">
          <mxGeometry x="1580" y="1426" width="80" height="80" as="geometry" />
        </mxCell>
        <mxCell id="relau2AKkcOZ9EzJfMCs-218" style="edgeStyle=orthogonalEdgeStyle;rounded=0;orthogonalLoop=1;jettySize=auto;html=1;exitX=0.5;exitY=0;exitDx=0;exitDy=0;entryX=0.5;entryY=1;entryDx=0;entryDy=0;startArrow=none;startFill=0;endArrow=none;endFill=0;" parent="1" source="relau2AKkcOZ9EzJfMCs-213" target="relau2AKkcOZ9EzJfMCs-217" edge="1">
          <mxGeometry relative="1" as="geometry" />
        </mxCell>
        <mxCell id="relau2AKkcOZ9EzJfMCs-219" style="edgeStyle=orthogonalEdgeStyle;rounded=0;orthogonalLoop=1;jettySize=auto;html=1;exitX=1;exitY=0.5;exitDx=0;exitDy=0;startArrow=none;startFill=0;endArrow=none;endFill=0;" parent="1" source="relau2AKkcOZ9EzJfMCs-213" target="relau2AKkcOZ9EzJfMCs-215" edge="1">
          <mxGeometry relative="1" as="geometry" />
        </mxCell>
        <mxCell id="relau2AKkcOZ9EzJfMCs-222" style="edgeStyle=orthogonalEdgeStyle;rounded=0;orthogonalLoop=1;jettySize=auto;html=1;exitX=1;exitY=1;exitDx=0;exitDy=0;entryX=0;entryY=0.5;entryDx=0;entryDy=0;startArrow=none;startFill=0;endArrow=none;endFill=0;" parent="1" source="relau2AKkcOZ9EzJfMCs-213" target="relau2AKkcOZ9EzJfMCs-221" edge="1">
          <mxGeometry relative="1" as="geometry" />
        </mxCell>
        <mxCell id="relau2AKkcOZ9EzJfMCs-224" style="edgeStyle=orthogonalEdgeStyle;rounded=0;orthogonalLoop=1;jettySize=auto;html=1;exitX=0.5;exitY=1;exitDx=0;exitDy=0;entryX=0.5;entryY=0;entryDx=0;entryDy=0;startArrow=none;startFill=0;endArrow=none;endFill=0;" parent="1" source="relau2AKkcOZ9EzJfMCs-213" target="relau2AKkcOZ9EzJfMCs-223" edge="1">
          <mxGeometry relative="1" as="geometry" />
        </mxCell>
        <mxCell id="relau2AKkcOZ9EzJfMCs-231" style="edgeStyle=orthogonalEdgeStyle;rounded=0;orthogonalLoop=1;jettySize=auto;html=1;exitX=0.75;exitY=0;exitDx=0;exitDy=0;entryX=0;entryY=0.5;entryDx=0;entryDy=0;startArrow=none;startFill=0;endArrow=none;endFill=0;" parent="1" source="relau2AKkcOZ9EzJfMCs-213" target="relau2AKkcOZ9EzJfMCs-230" edge="1">
          <mxGeometry relative="1" as="geometry">
            <Array as="points">
              <mxPoint x="1950" y="1436" />
              <mxPoint x="1950" y="1286" />
            </Array>
          </mxGeometry>
        </mxCell>
        <mxCell id="relau2AKkcOZ9EzJfMCs-213" value="EVENTO" style="rounded=0;whiteSpace=wrap;html=1;" parent="1" vertex="1">
          <mxGeometry x="1800" y="1436" width="120" height="60" as="geometry" />
        </mxCell>
        <mxCell id="relau2AKkcOZ9EzJfMCs-215" value="titulo_evento" style="ellipse;whiteSpace=wrap;html=1;" parent="1" vertex="1">
          <mxGeometry x="1960" y="1336" width="120" height="80" as="geometry" />
        </mxCell>
        <mxCell id="relau2AKkcOZ9EzJfMCs-220" style="edgeStyle=orthogonalEdgeStyle;rounded=0;orthogonalLoop=1;jettySize=auto;html=1;exitX=0;exitY=0.5;exitDx=0;exitDy=0;entryX=1;entryY=0.75;entryDx=0;entryDy=0;startArrow=none;startFill=0;endArrow=none;endFill=0;" parent="1" source="relau2AKkcOZ9EzJfMCs-216" target="relau2AKkcOZ9EzJfMCs-213" edge="1">
          <mxGeometry relative="1" as="geometry" />
        </mxCell>
        <mxCell id="relau2AKkcOZ9EzJfMCs-216" value="imagen_promocional" style="ellipse;whiteSpace=wrap;html=1;" parent="1" vertex="1">
          <mxGeometry x="2060" y="1446" width="120" height="80" as="geometry" />
        </mxCell>
        <mxCell id="relau2AKkcOZ9EzJfMCs-217" value="&lt;u&gt;id_evento&lt;/u&gt;" style="ellipse;whiteSpace=wrap;html=1;" parent="1" vertex="1">
          <mxGeometry x="1820" y="1256" width="120" height="80" as="geometry" />
        </mxCell>
        <mxCell id="relau2AKkcOZ9EzJfMCs-221" value="descripcion_evento" style="ellipse;whiteSpace=wrap;html=1;" parent="1" vertex="1">
          <mxGeometry x="2020" y="1551" width="120" height="80" as="geometry" />
        </mxCell>
        <mxCell id="relau2AKkcOZ9EzJfMCs-223" value="fecha_evento" style="ellipse;whiteSpace=wrap;html=1;" parent="1" vertex="1">
          <mxGeometry x="1810" y="1611" width="120" height="80" as="geometry" />
        </mxCell>
        <mxCell id="relau2AKkcOZ9EzJfMCs-225" value="&lt;b&gt;1 : N&lt;/b&gt;" style="text;html=1;strokeColor=none;fillColor=none;align=center;verticalAlign=middle;whiteSpace=wrap;rounded=0;" parent="1" vertex="1">
          <mxGeometry x="1590" y="1391" width="60" height="30" as="geometry" />
        </mxCell>
        <mxCell id="relau2AKkcOZ9EzJfMCs-228" value="incidencia_reseÃ±a" style="ellipse;whiteSpace=wrap;html=1;" parent="1" vertex="1">
          <mxGeometry x="415" y="1182" width="105" height="74" as="geometry" />
        </mxCell>
        <mxCell id="relau2AKkcOZ9EzJfMCs-230" value="incidencia_evento" style="ellipse;whiteSpace=wrap;html=1;" parent="1" vertex="1">
          <mxGeometry x="1980" y="1246" width="120" height="80" as="geometry" />
        </mxCell>
        <mxCell id="relau2AKkcOZ9EzJfMCs-233" style="edgeStyle=orthogonalEdgeStyle;rounded=0;orthogonalLoop=1;jettySize=auto;html=1;exitX=0;exitY=0.5;exitDx=0;exitDy=0;entryX=0.75;entryY=0;entryDx=0;entryDy=0;startArrow=none;startFill=0;endArrow=none;endFill=0;" parent="1" source="relau2AKkcOZ9EzJfMCs-232" target="relau2AKkcOZ9EzJfMCs-178" edge="1">
          <mxGeometry relative="1" as="geometry" />
        </mxCell>
        <mxCell id="relau2AKkcOZ9EzJfMCs-232" value="incidencia_respuesta" style="ellipse;whiteSpace=wrap;html=1;" parent="1" vertex="1">
          <mxGeometry x="1270" y="1182" width="120" height="80" as="geometry" />
        </mxCell>
        <mxCell id="relau2AKkcOZ9EzJfMCs-234" value="AÃADE_FAVORITO" style="rhombus;whiteSpace=wrap;html=1;" parent="1" vertex="1">
          <mxGeometry x="240" y="1016" width="160" height="80" as="geometry" />
        </mxCell>
        <mxCell id="relau2AKkcOZ9EzJfMCs-237" value="&lt;b&gt;N : M&lt;/b&gt;" style="text;html=1;strokeColor=none;fillColor=none;align=center;verticalAlign=middle;whiteSpace=wrap;rounded=0;" parent="1" vertex="1">
          <mxGeometry x="190" y="1041" width="60" height="30" as="geometry" />
        </mxCell>
        <mxCell id="-vnu5VXbckZ52TAGntJZ-2" style="edgeStyle=orthogonalEdgeStyle;rounded=0;orthogonalLoop=1;jettySize=auto;html=1;exitX=0.5;exitY=1;exitDx=0;exitDy=0;endArrow=none;endFill=0;" parent="1" source="relau2AKkcOZ9EzJfMCs-246" edge="1">
          <mxGeometry relative="1" as="geometry">
            <mxPoint x="-240" y="1000" as="targetPoint" />
          </mxGeometry>
        </mxCell>
        <mxCell id="relau2AKkcOZ9EzJfMCs-246" value="CONTROLA" style="rhombus;whiteSpace=wrap;html=1;" parent="1" vertex="1">
          <mxGeometry x="-280" y="876" width="80" height="80" as="geometry" />
        </mxCell>
        <mxCell id="relau2AKkcOZ9EzJfMCs-258" style="edgeStyle=orthogonalEdgeStyle;rounded=0;orthogonalLoop=1;jettySize=auto;html=1;exitX=1;exitY=0.5;exitDx=0;exitDy=0;entryX=0.5;entryY=1;entryDx=0;entryDy=0;startArrow=none;startFill=0;endArrow=none;endFill=0;" parent="1" source="relau2AKkcOZ9EzJfMCs-256" target="relau2AKkcOZ9EzJfMCs-257" edge="1">
          <mxGeometry relative="1" as="geometry" />
        </mxCell>
        <mxCell id="relau2AKkcOZ9EzJfMCs-261" style="edgeStyle=orthogonalEdgeStyle;rounded=0;orthogonalLoop=1;jettySize=auto;html=1;exitX=1;exitY=0.5;exitDx=0;exitDy=0;entryX=0;entryY=0.5;entryDx=0;entryDy=0;startArrow=none;startFill=0;endArrow=none;endFill=0;" parent="1" source="relau2AKkcOZ9EzJfMCs-256" target="relau2AKkcOZ9EzJfMCs-260" edge="1">
          <mxGeometry relative="1" as="geometry" />
        </mxCell>
        <mxCell id="relau2AKkcOZ9EzJfMCs-262" style="edgeStyle=orthogonalEdgeStyle;rounded=0;orthogonalLoop=1;jettySize=auto;html=1;exitX=1;exitY=0.5;exitDx=0;exitDy=0;entryX=0.5;entryY=0;entryDx=0;entryDy=0;startArrow=none;startFill=0;endArrow=none;endFill=0;" parent="1" source="relau2AKkcOZ9EzJfMCs-256" target="relau2AKkcOZ9EzJfMCs-259" edge="1">
          <mxGeometry relative="1" as="geometry" />
        </mxCell>
        <mxCell id="R-L79iOkoHwaGtRIeRki-6" style="edgeStyle=orthogonalEdgeStyle;rounded=0;orthogonalLoop=1;jettySize=auto;html=1;exitX=1;exitY=0.5;exitDx=0;exitDy=0;entryX=0;entryY=0.5;entryDx=0;entryDy=0;endArrow=none;endFill=0;" parent="1" source="relau2AKkcOZ9EzJfMCs-256" target="R-L79iOkoHwaGtRIeRki-5" edge="1">
          <mxGeometry relative="1" as="geometry" />
        </mxCell>
        <mxCell id="relau2AKkcOZ9EzJfMCs-256" value="LOG" style="rounded=0;whiteSpace=wrap;html=1;" parent="1" vertex="1">
          <mxGeometry x="2400" y="925" width="120" height="60" as="geometry" />
        </mxCell>
        <mxCell id="relau2AKkcOZ9EzJfMCs-257" value="fecha_hora" style="ellipse;whiteSpace=wrap;html=1;" parent="1" vertex="1">
          <mxGeometry x="2550" y="830" width="120" height="80" as="geometry" />
        </mxCell>
        <mxCell id="relau2AKkcOZ9EzJfMCs-259" value="texto_log" style="ellipse;whiteSpace=wrap;html=1;" parent="1" vertex="1">
          <mxGeometry x="2550" y="1000" width="120" height="80" as="geometry" />
        </mxCell>
        <mxCell id="relau2AKkcOZ9EzJfMCs-260" value="tipo_log" style="ellipse;whiteSpace=wrap;html=1;" parent="1" vertex="1">
          <mxGeometry x="2750" y="961" width="120" height="80" as="geometry" />
        </mxCell>
        <mxCell id="relau2AKkcOZ9EzJfMCs-263" value="CONFIGURACION" style="rounded=0;whiteSpace=wrap;html=1;" parent="1" vertex="1">
          <mxGeometry x="2400" y="1176" width="120" height="60" as="geometry" />
        </mxCell>
        <mxCell id="relau2AKkcOZ9EzJfMCs-264" value="nombre_variable" style="ellipse;whiteSpace=wrap;html=1;" parent="1" vertex="1">
          <mxGeometry x="2560" y="1166" width="120" height="80" as="geometry" />
        </mxCell>
        <mxCell id="relau2AKkcOZ9EzJfMCs-265" value="valor_variable" style="ellipse;whiteSpace=wrap;html=1;" parent="1" vertex="1">
          <mxGeometry x="2400" y="1246" width="120" height="80" as="geometry" />
        </mxCell>
        <mxCell id="relau2AKkcOZ9EzJfMCs-270" style="edgeStyle=orthogonalEdgeStyle;rounded=0;orthogonalLoop=1;jettySize=auto;html=1;exitX=0.5;exitY=0;exitDx=0;exitDy=0;entryX=0;entryY=0.75;entryDx=0;entryDy=0;startArrow=none;startFill=0;endArrow=block;endFill=1;" parent="1" source="relau2AKkcOZ9EzJfMCs-268" edge="1">
          <mxGeometry relative="1" as="geometry">
            <mxPoint x="1110" y="219" as="targetPoint" />
          </mxGeometry>
        </mxCell>
        <mxCell id="relau2AKkcOZ9EzJfMCs-272" value="(0,n)" style="edgeLabel;html=1;align=center;verticalAlign=middle;resizable=0;points=[];" parent="relau2AKkcOZ9EzJfMCs-270" vertex="1" connectable="0">
          <mxGeometry x="0.6137" y="2" relative="1" as="geometry">
            <mxPoint as="offset" />
          </mxGeometry>
        </mxCell>
        <mxCell id="relau2AKkcOZ9EzJfMCs-268" value="REALIZA" style="rhombus;whiteSpace=wrap;html=1;" parent="1" vertex="1">
          <mxGeometry x="910" y="180" width="80" height="80" as="geometry" />
        </mxCell>
        <mxCell id="relau2AKkcOZ9EzJfMCs-271" value="&lt;b&gt;1 : N&lt;/b&gt;" style="text;html=1;strokeColor=none;fillColor=none;align=center;verticalAlign=middle;whiteSpace=wrap;rounded=0;" parent="1" vertex="1">
          <mxGeometry x="865" y="205" width="60" height="30" as="geometry" />
        </mxCell>
        <mxCell id="relau2AKkcOZ9EzJfMCs-274" style="edgeStyle=orthogonalEdgeStyle;rounded=0;orthogonalLoop=1;jettySize=auto;html=1;exitX=1;exitY=0.5;exitDx=0;exitDy=0;entryX=0.5;entryY=0;entryDx=0;entryDy=0;startArrow=none;startFill=0;endArrow=none;endFill=0;" parent="1" source="relau2AKkcOZ9EzJfMCs-276" target="relau2AKkcOZ9EzJfMCs-278" edge="1">
          <mxGeometry relative="1" as="geometry" />
        </mxCell>
        <mxCell id="relau2AKkcOZ9EzJfMCs-275" style="edgeStyle=orthogonalEdgeStyle;rounded=0;orthogonalLoop=1;jettySize=auto;html=1;exitX=1;exitY=0.5;exitDx=0;exitDy=0;entryX=0.5;entryY=1;entryDx=0;entryDy=0;startArrow=none;startFill=0;endArrow=none;endFill=0;" parent="1" source="relau2AKkcOZ9EzJfMCs-276" target="relau2AKkcOZ9EzJfMCs-277" edge="1">
          <mxGeometry relative="1" as="geometry" />
        </mxCell>
        <mxCell id="R-L79iOkoHwaGtRIeRki-8" style="edgeStyle=orthogonalEdgeStyle;rounded=0;orthogonalLoop=1;jettySize=auto;html=1;exitX=1;exitY=0.5;exitDx=0;exitDy=0;entryX=0;entryY=0.5;entryDx=0;entryDy=0;endArrow=none;endFill=0;" parent="1" source="relau2AKkcOZ9EzJfMCs-276" target="R-L79iOkoHwaGtRIeRki-7" edge="1">
          <mxGeometry relative="1" as="geometry" />
        </mxCell>
        <mxCell id="relau2AKkcOZ9EzJfMCs-276" value="RESPUESTAS_FAQ" style="rounded=0;whiteSpace=wrap;html=1;" parent="1" vertex="1">
          <mxGeometry x="2400" y="630" width="120" height="60" as="geometry" />
        </mxCell>
        <mxCell id="relau2AKkcOZ9EzJfMCs-277" value="pregunta" style="ellipse;whiteSpace=wrap;html=1;" parent="1" vertex="1">
          <mxGeometry x="2550" y="530" width="120" height="80" as="geometry" />
        </mxCell>
        <mxCell id="relau2AKkcOZ9EzJfMCs-278" value="respuesta" style="ellipse;whiteSpace=wrap;html=1;" parent="1" vertex="1">
          <mxGeometry x="2550" y="686" width="120" height="80" as="geometry" />
        </mxCell>
        <mxCell id="relau2AKkcOZ9EzJfMCs-281" style="edgeStyle=orthogonalEdgeStyle;rounded=0;orthogonalLoop=1;jettySize=auto;html=1;exitX=0.75;exitY=0;exitDx=0;exitDy=0;entryX=0;entryY=0.5;entryDx=0;entryDy=0;startArrow=none;startFill=0;endArrow=none;endFill=0;" parent="1" source="relau2AKkcOZ9EzJfMCs-279" target="relau2AKkcOZ9EzJfMCs-280" edge="1">
          <mxGeometry relative="1" as="geometry" />
        </mxCell>
        <mxCell id="relau2AKkcOZ9EzJfMCs-283" style="edgeStyle=orthogonalEdgeStyle;rounded=0;orthogonalLoop=1;jettySize=auto;html=1;exitX=1;exitY=0.5;exitDx=0;exitDy=0;startArrow=none;startFill=0;endArrow=none;endFill=0;" parent="1" source="relau2AKkcOZ9EzJfMCs-279" target="relau2AKkcOZ9EzJfMCs-282" edge="1">
          <mxGeometry relative="1" as="geometry" />
        </mxCell>
        <mxCell id="relau2AKkcOZ9EzJfMCs-279" value="COMENTARIO" style="rounded=0;whiteSpace=wrap;html=1;" parent="1" vertex="1">
          <mxGeometry x="1110" y="190" width="120" height="60" as="geometry" />
        </mxCell>
        <mxCell id="relau2AKkcOZ9EzJfMCs-280" value="&lt;u&gt;id_comentario&lt;/u&gt;" style="ellipse;whiteSpace=wrap;html=1;" parent="1" vertex="1">
          <mxGeometry x="1235" y="110" width="120" height="80" as="geometry" />
        </mxCell>
        <mxCell id="relau2AKkcOZ9EzJfMCs-282" value="texto_comentario" style="ellipse;whiteSpace=wrap;html=1;" parent="1" vertex="1">
          <mxGeometry x="1280" y="210" width="120" height="80" as="geometry" />
        </mxCell>
        <mxCell id="-vnu5VXbckZ52TAGntJZ-4" value="&lt;b&gt;N : M&lt;/b&gt;" style="text;html=1;strokeColor=none;fillColor=none;align=center;verticalAlign=middle;whiteSpace=wrap;rounded=0;" parent="1" vertex="1">
          <mxGeometry x="-210" y="901" width="60" height="30" as="geometry" />
        </mxCell>
        <mxCell id="R-L79iOkoHwaGtRIeRki-1" value="&lt;u&gt;id_usuario&lt;/u&gt;" style="ellipse;whiteSpace=wrap;html=1;" parent="1" vertex="1">
          <mxGeometry x="140" y="130" width="120" height="80" as="geometry" />
        </mxCell>
        <mxCell id="R-L79iOkoHwaGtRIeRki-3" value="&lt;u&gt;id_restaurante&lt;/u&gt;" style="ellipse;whiteSpace=wrap;html=1;" parent="1" vertex="1">
          <mxGeometry x="1370" y="2250" width="120" height="80" as="geometry" />
        </mxCell>
        <mxCell id="R-L79iOkoHwaGtRIeRki-5" value="&lt;u&gt;id_log&lt;/u&gt;" style="ellipse;whiteSpace=wrap;html=1;" parent="1" vertex="1">
          <mxGeometry x="2750" y="876" width="120" height="80" as="geometry" />
        </mxCell>
        <mxCell id="R-L79iOkoHwaGtRIeRki-7" value="&lt;u&gt;id_pregunta&lt;/u&gt;" style="ellipse;whiteSpace=wrap;html=1;" parent="1" vertex="1">
          <mxGeometry x="2700" y="620" width="120" height="80" as="geometry" />
        </mxCell>
        <mxCell id="PF5ZQnjB61krALWRfz7C-3" value="Tipo_Comida" style="rounded=0;whiteSpace=wrap;html=1;" vertex="1" parent="1">
          <mxGeometry x="480" y="2250" width="120" height="60" as="geometry" />
        </mxCell>
        <mxCell id="PF5ZQnjB61krALWRfz7C-7" style="edgeStyle=orthogonalEdgeStyle;rounded=0;orthogonalLoop=1;jettySize=auto;html=1;exitX=1;exitY=0.5;exitDx=0;exitDy=0;entryX=0.25;entryY=1;entryDx=0;entryDy=0;" edge="1" parent="1" source="PF5ZQnjB61krALWRfz7C-5" target="relau2AKkcOZ9EzJfMCs-46">
          <mxGeometry relative="1" as="geometry">
            <Array as="points">
              <mxPoint x="900" y="2126" />
              <mxPoint x="900" y="1690" />
              <mxPoint x="950" y="1690" />
            </Array>
          </mxGeometry>
        </mxCell>
        <mxCell id="PF5ZQnjB61krALWRfz7C-8" style="edgeStyle=orthogonalEdgeStyle;rounded=0;orthogonalLoop=1;jettySize=auto;html=1;exitX=0;exitY=0.5;exitDx=0;exitDy=0;entryX=0.5;entryY=0;entryDx=0;entryDy=0;" edge="1" parent="1" source="PF5ZQnjB61krALWRfz7C-5" target="PF5ZQnjB61krALWRfz7C-3">
          <mxGeometry relative="1" as="geometry" />
        </mxCell>
        <mxCell id="PF5ZQnjB61krALWRfz7C-5" value="OFRECE" style="rhombus;whiteSpace=wrap;html=1;" vertex="1" parent="1">
          <mxGeometry x="580" y="2086" width="80" height="80" as="geometry" />
        </mxCell>
        <mxCell id="PF5ZQnjB61krALWRfz7C-9" value="N:M" style="text;html=1;align=center;verticalAlign=middle;resizable=0;points=[];autosize=1;strokeColor=none;fillColor=none;" vertex="1" parent="1">
          <mxGeometry x="600" y="2056" width="40" height="30" as="geometry" />
        </mxCell>
        <mxCell id="PF5ZQnjB61krALWRfz7C-10" value="&lt;u&gt;id_tipo_comida&lt;/u&gt;" style="ellipse;whiteSpace=wrap;html=1;" vertex="1" parent="1">
          <mxGeometry x="300" y="2240" width="120" height="80" as="geometry" />
        </mxCell>
        <mxCell id="PF5ZQnjB61krALWRfz7C-11" value="nombre_tipo" style="ellipse;whiteSpace=wrap;html=1;" vertex="1" parent="1">
          <mxGeometry x="570" y="2350" width="105" height="70" as="geometry" />
        </mxCell>
        <mxCell id="PF5ZQnjB61krALWRfz7C-12" value="" style="endArrow=none;html=1;rounded=0;entryX=1;entryY=0.5;entryDx=0;entryDy=0;exitX=0;exitY=0.5;exitDx=0;exitDy=0;" edge="1" parent="1" source="PF5ZQnjB61krALWRfz7C-3" target="PF5ZQnjB61krALWRfz7C-10">
          <mxGeometry width="50" height="50" relative="1" as="geometry">
            <mxPoint x="1070" y="2040" as="sourcePoint" />
            <mxPoint x="1120" y="1990" as="targetPoint" />
          </mxGeometry>
        </mxCell>
        <mxCell id="PF5ZQnjB61krALWRfz7C-13" value="" style="endArrow=none;html=1;rounded=0;exitX=0;exitY=0.5;exitDx=0;exitDy=0;entryX=0.5;entryY=1;entryDx=0;entryDy=0;" edge="1" parent="1" source="PF5ZQnjB61krALWRfz7C-11" target="PF5ZQnjB61krALWRfz7C-3">
          <mxGeometry width="50" height="50" relative="1" as="geometry">
            <mxPoint x="1070" y="2040" as="sourcePoint" />
            <mxPoint x="1120" y="1990" as="targetPoint" />
            <Array as="points">
              <mxPoint x="540" y="2385" />
              <mxPoint x="540" y="2350" />
            </Array>
          </mxGeometry>
        </mxCell>
        <mxCell id="PF5ZQnjB61krALWRfz7C-16" style="edgeStyle=orthogonalEdgeStyle;rounded=0;orthogonalLoop=1;jettySize=auto;html=1;exitX=0;exitY=0.5;exitDx=0;exitDy=0;entryX=0;entryY=0.75;entryDx=0;entryDy=0;" edge="1" parent="1" source="PF5ZQnjB61krALWRfz7C-14" target="PF5ZQnjB61krALWRfz7C-3">
          <mxGeometry relative="1" as="geometry">
            <Array as="points">
              <mxPoint x="350" y="2415" />
              <mxPoint x="350" y="2340" />
              <mxPoint x="440" y="2340" />
              <mxPoint x="440" y="2295" />
            </Array>
          </mxGeometry>
        </mxCell>
        <mxCell id="PF5ZQnjB61krALWRfz7C-17" style="edgeStyle=orthogonalEdgeStyle;rounded=0;orthogonalLoop=1;jettySize=auto;html=1;exitX=1;exitY=0.5;exitDx=0;exitDy=0;entryX=0.25;entryY=1;entryDx=0;entryDy=0;" edge="1" parent="1" source="PF5ZQnjB61krALWRfz7C-14" target="PF5ZQnjB61krALWRfz7C-3">
          <mxGeometry relative="1" as="geometry" />
        </mxCell>
        <mxCell id="PF5ZQnjB61krALWRfz7C-14" value="SUBDIVIDE_TIPO" style="rhombus;whiteSpace=wrap;html=1;" vertex="1" parent="1">
          <mxGeometry x="380" y="2360" width="100" height="110" as="geometry" />
        </mxCell>
        <mxCell id="PF5ZQnjB61krALWRfz7C-18" value="N:M" style="text;html=1;align=center;verticalAlign=middle;resizable=0;points=[];autosize=1;strokeColor=none;fillColor=none;" vertex="1" parent="1">
          <mxGeometry x="410" y="2480" width="40" height="30" as="geometry" />
        </mxCell>
        <mxCell id="PF5ZQnjB61krALWRfz7C-22" value="&lt;u&gt;id_variable&lt;/u&gt;" style="ellipse;whiteSpace=wrap;html=1;" vertex="1" parent="1">
          <mxGeometry x="2400" y="1071" width="120" height="80" as="geometry" />
        </mxCell>
        <mxCell id="PF5ZQnjB61krALWRfz7C-23" value="" style="endArrow=none;html=1;rounded=0;entryX=0.5;entryY=1;entryDx=0;entryDy=0;exitX=0.5;exitY=0;exitDx=0;exitDy=0;" edge="1" parent="1" source="relau2AKkcOZ9EzJfMCs-263" target="PF5ZQnjB61krALWRfz7C-22">
          <mxGeometry width="50" height="50" relative="1" as="geometry">
            <mxPoint x="2440" y="1140" as="sourcePoint" />
            <mxPoint x="2490" y="1090" as="targetPoint" />
          </mxGeometry>
        </mxCell>
        <mxCell id="PF5ZQnjB61krALWRfz7C-24" value="" style="endArrow=none;html=1;rounded=0;entryX=0;entryY=0.5;entryDx=0;entryDy=0;exitX=1;exitY=0.5;exitDx=0;exitDy=0;" edge="1" parent="1" source="relau2AKkcOZ9EzJfMCs-263" target="relau2AKkcOZ9EzJfMCs-264">
          <mxGeometry width="50" height="50" relative="1" as="geometry">
            <mxPoint x="2440" y="1140" as="sourcePoint" />
            <mxPoint x="2490" y="1090" as="targetPoint" />
          </mxGeometry>
        </mxCell>
        <mxCell id="PF5ZQnjB61krALWRfz7C-25" value="" style="endArrow=none;html=1;rounded=0;entryX=0.5;entryY=0;entryDx=0;entryDy=0;exitX=0.5;exitY=1;exitDx=0;exitDy=0;" edge="1" parent="1" source="relau2AKkcOZ9EzJfMCs-263" target="relau2AKkcOZ9EzJfMCs-265">
          <mxGeometry width="50" height="50" relative="1" as="geometry">
            <mxPoint x="2400" y="1200" as="sourcePoint" />
            <mxPoint x="2450" y="1150" as="targetPoint" />
          </mxGeometry>
        </mxCell>
        <mxCell id="PF5ZQnjB61krALWRfz7C-26" value="fecha_reseÃ±a" style="ellipse;whiteSpace=wrap;html=1;" vertex="1" parent="1">
          <mxGeometry x="980" y="806" width="110" height="60" as="geometry" />
        </mxCell>
        <mxCell id="PF5ZQnjB61krALWRfz7C-27" value="" style="endArrow=none;html=1;rounded=0;entryX=0;entryY=0.5;entryDx=0;entryDy=0;exitX=1;exitY=0.5;exitDx=0;exitDy=0;" edge="1" parent="1" source="relau2AKkcOZ9EzJfMCs-102" target="PF5ZQnjB61krALWRfz7C-26">
          <mxGeometry width="50" height="50" relative="1" as="geometry">
            <mxPoint x="750" y="970" as="sourcePoint" />
            <mxPoint x="800" y="920" as="targetPoint" />
          </mxGeometry>
        </mxCell>
      </root>
    </mxGraphModel>
  </diagram>
</mxfile>
